<?xml version="1.0" standalone="no"?><!DOCTYPE svg PUBLIC "-//W3C//DTD SVG 1.1//EN" "http://www.w3.org/Graphics/SVG/1.1/DTD/svg11.dtd"><svg xmlns:xlink="http://www.w3.org/1999/xlink" version="1.1" style="font-family:'lucida grande', 'lucida sans unicode', verdana, arial, helvetica, sans-serif;font-size:12px;" xmlns="http://www.w3.org/2000/svg" width="600" height="400"><desc>Created with Highcharts 3.0.10</desc><defs><clipPath id="highcharts-5"><rect x="0" y="0" width="278" height="529"></rect></clipPath></defs><rect x="0" y="0" width="600" height="400" fill="#FFFFFF" class=" highcharts-background"></rect><g class="highcharts-grid" ></g><g class="highcharts-grid" ><path fill="none" d="M 148.5 40 L 148.5 318" stroke="#C0C0C0" stroke-width="1"  opacity="1"></path><path fill="none" d="M 236.5 40 L 236.5 318" stroke="#C0C0C0" stroke-width="1"  opacity="1"></path><path fill="none" d="M 325.5 40 L 325.5 318" stroke="#C0C0C0" stroke-width="1"  opacity="1"></path><path fill="none" d="M 413.5 40 L 413.5 318" stroke="#C0C0C0" stroke-width="1"  opacity="1"></path><path fill="none" d="M 501.5 40 L 501.5 318" stroke="#C0C0C0" stroke-width="1"  opacity="1"></path><path fill="none" d="M 590.5 40 L 590.5 318" stroke="#C0C0C0" stroke-width="1"  opacity="1"></path><path fill="none" d="M 60.5 40 L 60.5 318" stroke="#C0C0C0" stroke-width="1"  opacity="1"></path></g><g class="highcharts-axis" ><path fill="none" d="M 61 96.5 L 56 96.5" stroke="#C0D0E0" stroke-width="1" opacity="1"></path><path fill="none" d="M 61 151.5 L 56 151.5" stroke="#C0D0E0" stroke-width="1" opacity="1"></path><path fill="none" d="M 61 207.5 L 56 207.5" stroke="#C0D0E0" stroke-width="1" opacity="1"></path><path fill="none" d="M 61 262.5 L 56 262.5" stroke="#C0D0E0" stroke-width="1" opacity="1"></path><path fill="none" d="M 61 318.5 L 56 318.5" stroke="#C0D0E0" stroke-width="1" opacity="1"></path><path fill="none" d="M 61 39.5 L 56 39.5" stroke="#C0D0E0" stroke-width="1"></path><path fill="none" d="M 60.5 40 L 60.5 318" stroke="#C0D0E0" stroke-width="1"  visibility="visible"></path></g><g class="highcharts-axis" ><text x="325.5" y="348"  text-anchor="middle" transform="translate(0,0)" class=" highcharts-yaxis-title" style="color:#4d759e;font-weight:bold;fill:#4d759e;" visibility="visible"><tspan x="325.5">Total fruit consumption</tspan></text></g><g class="highcharts-series-group" ><g class="highcharts-series highcharts-tracker" visibility="visible"  transform="translate(590,318) rotate(90) scale(-1,1) scale(1 1)" style="" width="529" height="278" clip-path="url(#highcharts-5)"><rect x="236.5" y="88.5" width="27" height="221" stroke="#FFFFFF" stroke-width="1" fill="#2f7ed8" rx="0" ry="0"></rect><rect x="180.5" y="132.5" width="27" height="133" stroke="#FFFFFF" stroke-width="1" fill="#2f7ed8" rx="0" ry="0"></rect><rect x="125.5" y="44.5" width="27" height="176" stroke="#FFFFFF" stroke-width="1" fill="#2f7ed8" rx="0" ry="0"></rect><rect x="69.5" y="44.5" width="27" height="309" stroke="#FFFFFF" stroke-width="1" fill="#2f7ed8" rx="0" ry="0"></rect><rect x="13.5" y="176.5" width="27" height="89" stroke="#FFFFFF" stroke-width="1" fill="#2f7ed8" rx="0" ry="0"></rect></g><g class="highcharts-markers" visibility="visible"  transform="translate(590,318) rotate(90) scale(-1,1) scale(1 1)" width="529" height="278" clip-path="none"></g><g class="highcharts-series highcharts-tracker" visibility="visible"  transform="translate(590,318) rotate(90) scale(-1,1) scale(1 1)" style="" width="529" height="278" clip-path="url(#highcharts-5)"><rect x="236.5" y="309.5" width="27" height="88" stroke="#FFFFFF" stroke-width="1" fill="#0d233a" rx="0" ry="0"></rect><rect x="180.5" y="265.5" width="27" height="88" stroke="#FFFFFF" stroke-width="1" fill="#0d233a" rx="0" ry="0"></rect><rect x="125.5" y="220.5" width="27" height="133" stroke="#FFFFFF" stroke-width="1" fill="#0d233a" rx="0" ry="0"></rect><rect x="69.5" y="353.5" width="27" height="88" stroke="#FFFFFF" stroke-width="1" fill="#0d233a" rx="0" ry="0"></rect><rect x="13.5" y="265.5" width="27" height="44" stroke="#FFFFFF" stroke-width="1" fill="#0d233a" rx="0" ry="0"></rect></g><g class="highcharts-markers" visibility="visible"  transform="translate(590,318) rotate(90) scale(-1,1) scale(1 1)" width="529" height="278" clip-path="none"></g><g class="highcharts-series highcharts-tracker" visibility="visible"  transform="translate(590,318) rotate(90) scale(-1,1) scale(1 1)" style="" width="529" height="278" clip-path="url(#highcharts-5)"><rect x="236.5" y="397.5" width="27" height="132" stroke="#FFFFFF" stroke-width="1" fill="#8bbc21" rx="0" ry="0"></rect><rect x="180.5" y="353.5" width="27" height="176" stroke="#FFFFFF" stroke-width="1" fill="#8bbc21" rx="0" ry="0"></rect><rect x="125.5" y="353.5" width="27" height="176" stroke="#FFFFFF" stroke-width="1" fill="#8bbc21" rx="0" ry="0"></rect><rect x="69.5" y="441.5" width="27" height="88" stroke="#FFFFFF" stroke-width="1" fill="#8bbc21" rx="0" ry="0"></rect><rect x="13.5" y="309.5" width="27" height="220" stroke="#FFFFFF" stroke-width="1" fill="#8bbc21" rx="0" ry="0"></rect></g><g class="highcharts-markers" visibility="visible"  transform="translate(590,318) rotate(90) scale(-1,1) scale(1 1)" width="529" height="278" clip-path="none"></g></g><text x="300" y="25" text-anchor="middle" class="highcharts-title"  style="color:#274b6d;font-size:16px;fill:#274b6d;width:536px;"><tspan x="300">Stacked bar chart</tspan></text><g class="highcharts-legend"  transform="translate(216,360)"><rect x="0.5" y="0.5" width="168" height="24" rx="5" ry="5" stroke="#909090" stroke-width="1" fill="#FFFFFF" visibility="visible"></rect><g ><g><g class="highcharts-legend-item"  transform="translate(8,3)"><text x="21" y="15" style="color:#274b6d;font-size:12px;cursor:pointer;fill:#274b6d;" text-anchor="start" ><tspan x="21">Joe</tspan></text><rect x="0" y="4" width="16" height="12" rx="2" ry="2"  fill="#8bbc21"></rect></g><g class="highcharts-legend-item"  transform="translate(57,3)"><text x="21" y="15" style="color:#274b6d;font-size:12px;cursor:pointer;fill:#274b6d;" text-anchor="start" ><tspan x="21">Jane</tspan></text><rect x="0" y="4" width="16" height="12" rx="2" ry="2"  fill="#0d233a"></rect></g><g class="highcharts-legend-item"  transform="translate(113,3)"><text x="21" y="15" style="color:#274b6d;font-size:12px;cursor:pointer;fill:#274b6d;" text-anchor="start" ><tspan x="21">John</tspan></text><rect x="0" y="4" width="16" height="12" rx="2" ry="2"  fill="#2f7ed8"></rect></g></g></g></g><g class="highcharts-axis-labels highcharts-xaxis-labels" ><text x="53" y="73.30000000000003" text-anchor="end" style="width:178px;color:#666;cursor:default;font-size:11px;fill:#666;" opacity="1"><tspan x="53">Apples</tspan></text><text x="53" y="128.90000000000003" text-anchor="end" style="width:178px;color:#666;cursor:default;font-size:11px;fill:#666;" opacity="1"><tspan x="53">Oranges</tspan></text><text x="53" y="184.5" text-anchor="end" style="width:178px;color:#666;cursor:default;font-size:11px;fill:#666;" opacity="1"><tspan x="53">Pears</tspan></text><text x="53" y="240.09999999999997" text-anchor="end" style="width:178px;color:#666;cursor:default;font-size:11px;fill:#666;" opacity="1"><tspan x="53">Grapes</tspan></text><text x="53" y="295.7" text-anchor="end" style="width:178px;color:#666;cursor:default;font-size:11px;fill:#666;" opacity="1"><tspan x="53">Bananas</tspan></text></g><g class="highcharts-axis-labels highcharts-yaxis-labels" ><text x="61" y="332" text-anchor="middle" style="color:#666;cursor:default;font-size:11px;fill:#666;" opacity="1"><tspan x="61">0</tspan></text><text x="149.16666666666669" y="332" text-anchor="middle" style="color:#666;cursor:default;font-size:11px;fill:#666;" opacity="1"><tspan x="149.16666666666669">2</tspan></text><text x="237.33333333333334" y="332" text-anchor="middle" style="color:#666;cursor:default;font-size:11px;fill:#666;" opacity="1"><tspan x="237.33333333333334">4</tspan></text><text x="325.5" y="332" text-anchor="middle" style="color:#666;cursor:default;font-size:11px;fill:#666;" opacity="1"><tspan x="325.5">6</tspan></text><text x="413.6666666666667" y="332" text-anchor="middle" style="color:#666;cursor:default;font-size:11px;fill:#666;" opacity="1"><tspan x="413.6666666666667">8</tspan></text><text x="501.83333333333337" y="332" text-anchor="middle" style="color:#666;cursor:default;font-size:11px;fill:#666;" opacity="1"><tspan x="501.83333333333337">10</tspan></text><text x="590" y="332" text-anchor="middle" style="color:#666;cursor:default;font-size:11px;fill:#666;" opacity="1"><tspan x="590">12</tspan></text></g><g class="highcharts-tooltip"  style="cursor:default;padding:0;white-space:nowrap;" transform="translate(0,-9999)"><rect x="0.5" y="0.5" width="16" height="16" fill="none" fill-opacity="0.85" rx="3" ry="3"  stroke="black" stroke-opacity="0.049999999999999996" stroke-width="5" transform="translate(1, 1)"></rect><rect x="0.5" y="0.5" width="16" height="16" fill="none" fill-opacity="0.85" rx="3" ry="3"  stroke="black" stroke-opacity="0.09999999999999999" stroke-width="3" transform="translate(1, 1)"></rect><rect x="0.5" y="0.5" width="16" height="16" fill="none" fill-opacity="0.85" rx="3" ry="3"  stroke="black" stroke-opacity="0.15" stroke-width="1" transform="translate(1, 1)"></rect><rect x="0.5" y="0.5" width="16" height="16" fill="rgb(255,255,255)" fill-opacity="0.85" rx="3" ry="3"></rect><text x="8" y="21"  style="font-size:12px;color:#333333;fill:#333333;"></text></g><text x="590" y="395" text-anchor="end"  style="cursor:pointer;color:#909090;font-size:9px;fill:#909090;"><tspan x="590">Highcharts.com</tspan></text></svg>