<?xml version="1.0" standalone="no"?><!DOCTYPE svg PUBLIC "-//W3C//DTD SVG 1.1//EN" "http://www.w3.org/Graphics/SVG/1.1/DTD/svg11.dtd"><svg xmlns:xlink="http://www.w3.org/1999/xlink" version="1.1" style="font-family:'lucida grande', 'lucida sans unicode', verdana, arial, helvetica, sans-serif;font-size:12px;" xmlns="http://www.w3.org/2000/svg" width="600" height="400"><desc>Created with Highcharts 3.0.10</desc><defs><clipPath id="highcharts-5"><rect x="0" y="0" width="530" height="297"></rect></clipPath></defs><rect x="0" y="0" width="600" height="400" fill="#FFFFFF" class=" highcharts-background"></rect><g class="highcharts-grid" ></g><g class="highcharts-grid" ><path fill="none" d="M 60 39.5 L 590 39.5" stroke="#C0C0C0" stroke-width="1"  opacity="1"></path><path fill="none" d="M 60 114.5 L 590 114.5" stroke="#C0C0C0" stroke-width="1"  opacity="1"></path><path fill="none" d="M 60 189.5 L 590 189.5" stroke="#C0C0C0" stroke-width="1"  opacity="1"></path><path fill="none" d="M 60 263.5 L 590 263.5" stroke="#C0C0C0" stroke-width="1"  opacity="1"></path><path fill="none" d="M 60 337.5 L 590 337.5" stroke="#C0C0C0" stroke-width="1"  opacity="1"></path></g><g class="highcharts-axis" ><path fill="none" d="M 271.5 337 L 271.5 342" stroke="#C0D0E0" stroke-width="1" opacity="1"></path><path fill="none" d="M 377.5 337 L 377.5 342" stroke="#C0D0E0" stroke-width="1" opacity="1"></path><path fill="none" d="M 483.5 337 L 483.5 342" stroke="#C0D0E0" stroke-width="1" opacity="1"></path><path fill="none" d="M 590.5 337 L 590.5 342" stroke="#C0D0E0" stroke-width="1" opacity="1"></path><path fill="none" d="M 165.5 337 L 165.5 342" stroke="#C0D0E0" stroke-width="1" opacity="1"></path><path fill="none" d="M 59.5 337 L 59.5 342" stroke="#C0D0E0" stroke-width="1"></path><path fill="none" d="M 60 337.5 L 590 337.5" stroke="#C0D0E0" stroke-width="1"  visibility="visible"></path></g><g class="highcharts-axis" ><text x="24" y="188.5"  text-anchor="middle" transform="translate(0,0) rotate(270 24 188.5)" class=" highcharts-yaxis-title" style="color:#4d759e;font-weight:bold;fill:#4d759e;" visibility="visible"><tspan x="24">Total fruit consumption</tspan></text></g><g class="highcharts-series-group" ><g class="highcharts-series highcharts-tracker" visibility="visible"  transform="translate(60,40) scale(1 1)" style="" clip-path="url(#highcharts-5)"><rect x="27.5" y="-0.5" width="51" height="150" stroke="#FFFFFF" stroke-width="1" fill="#2f7ed8" rx="0" ry="0"></rect><rect x="133.5" y="-0.5" width="51" height="100" stroke="#FFFFFF" stroke-width="1" fill="#2f7ed8" rx="0" ry="0"></rect><rect x="239.5" y="-0.5" width="51" height="109" stroke="#FFFFFF" stroke-width="1" fill="#2f7ed8" rx="0" ry="0"></rect><rect x="345.5" y="-0.5" width="51" height="190" stroke="#FFFFFF" stroke-width="1" fill="#2f7ed8" rx="0" ry="0"></rect><rect x="451.5" y="-0.5" width="51" height="75" stroke="#FFFFFF" stroke-width="1" fill="#2f7ed8" rx="0" ry="0"></rect></g><g class="highcharts-markers" visibility="visible"  transform="translate(60,40) scale(1 1)" clip-path="none"></g><g class="highcharts-series highcharts-tracker" visibility="visible"  transform="translate(60,40) scale(1 1)" style="" clip-path="url(#highcharts-5)"><rect x="27.5" y="149.5" width="51" height="59" stroke="#FFFFFF" stroke-width="1" fill="#0d233a" rx="0" ry="0"></rect><rect x="133.5" y="99.5" width="51" height="66" stroke="#FFFFFF" stroke-width="1" fill="#0d233a" rx="0" ry="0"></rect><rect x="239.5" y="108.5" width="51" height="81" stroke="#FFFFFF" stroke-width="1" fill="#0d233a" rx="0" ry="0"></rect><rect x="345.5" y="189.5" width="51" height="54" stroke="#FFFFFF" stroke-width="1" fill="#0d233a" rx="0" ry="0"></rect><rect x="451.5" y="74.5" width="51" height="37" stroke="#FFFFFF" stroke-width="1" fill="#0d233a" rx="0" ry="0"></rect></g><g class="highcharts-markers" visibility="visible"  transform="translate(60,40) scale(1 1)" clip-path="none"></g><g class="highcharts-series highcharts-tracker" visibility="visible"  transform="translate(60,40) scale(1 1)" style="" clip-path="url(#highcharts-5)"><rect x="27.5" y="208.5" width="51" height="89" stroke="#FFFFFF" stroke-width="1" fill="#8bbc21" rx="0" ry="0"></rect><rect x="133.5" y="165.5" width="51" height="132" stroke="#FFFFFF" stroke-width="1" fill="#8bbc21" rx="0" ry="0"></rect><rect x="239.5" y="189.5" width="51" height="108" stroke="#FFFFFF" stroke-width="1" fill="#8bbc21" rx="0" ry="0"></rect><rect x="345.5" y="243.5" width="51" height="54" stroke="#FFFFFF" stroke-width="1" fill="#8bbc21" rx="0" ry="0"></rect><rect x="451.5" y="111.5" width="51" height="186" stroke="#FFFFFF" stroke-width="1" fill="#8bbc21" rx="0" ry="0"></rect></g><g class="highcharts-markers" visibility="visible"  transform="translate(60,40) scale(1 1)" clip-path="none"></g></g><text x="300" y="25" text-anchor="middle" class="highcharts-title"  style="color:#274b6d;font-size:16px;fill:#274b6d;width:536px;"><tspan x="300">Stacked column chart</tspan></text><g class="highcharts-legend"  transform="translate(216,360)"><rect x="0.5" y="0.5" width="168" height="24" rx="5" ry="5" stroke="#909090" stroke-width="1" fill="none" visibility="visible"></rect><g ><g><g class="highcharts-legend-item"  transform="translate(8,3)"><text x="21" y="15" style="color:#274b6d;font-size:12px;cursor:pointer;fill:#274b6d;" text-anchor="start" ><tspan x="21">John</tspan></text><rect x="0" y="4" width="16" height="12" rx="2" ry="2"  fill="#2f7ed8"></rect></g><g class="highcharts-legend-item"  transform="translate(64,3)"><text x="21" y="15" style="color:#274b6d;font-size:12px;cursor:pointer;fill:#274b6d;" text-anchor="start" ><tspan x="21">Jane</tspan></text><rect x="0" y="4" width="16" height="12" rx="2" ry="2"  fill="#0d233a"></rect></g><g class="highcharts-legend-item"  transform="translate(120,3)"><text x="21" y="15" style="color:#274b6d;font-size:12px;cursor:pointer;fill:#274b6d;" text-anchor="start" ><tspan x="21">Joe</tspan></text><rect x="0" y="4" width="16" height="12" rx="2" ry="2"  fill="#8bbc21"></rect></g></g></g></g><g class="highcharts-axis-labels highcharts-xaxis-labels" ><text x="113" y="351" text-anchor="middle" style="width:86px;color:#666;cursor:default;font-size:11px;fill:#666;" opacity="1"><tspan x="113">Apples</tspan></text><text x="219" y="351" text-anchor="middle" style="width:86px;color:#666;cursor:default;font-size:11px;fill:#666;" opacity="1"><tspan x="219">Oranges</tspan></text><text x="325" y="351" text-anchor="middle" style="width:86px;color:#666;cursor:default;font-size:11px;fill:#666;" opacity="1"><tspan x="325">Pears</tspan></text><text x="431" y="351" text-anchor="middle" style="width:86px;color:#666;cursor:default;font-size:11px;fill:#666;" opacity="1"><tspan x="431">Grapes</tspan></text><text x="537" y="351" text-anchor="middle" style="width:86px;color:#666;cursor:default;font-size:11px;fill:#666;" opacity="1"><tspan x="537">Bananas</tspan></text></g><g class="highcharts-axis-labels highcharts-yaxis-labels" ><text x="52" y="342.5" text-anchor="end" style="width:178px;color:#666;cursor:default;font-size:11px;fill:#666;" opacity="1"><tspan x="52">0</tspan></text><text x="52" y="45.5" text-anchor="end" style="width:178px;color:#666;cursor:default;font-size:11px;fill:#666;" opacity="1"><tspan x="52">100</tspan></text><text x="52" y="268.25" text-anchor="end" style="width:178px;color:#666;cursor:default;font-size:11px;fill:#666;" opacity="1"><tspan x="52">25</tspan></text><text x="52" y="194" text-anchor="end" style="width:178px;color:#666;cursor:default;font-size:11px;fill:#666;" opacity="1"><tspan x="52">50</tspan></text><text x="52" y="119.74999999999997" text-anchor="end" style="width:178px;color:#666;cursor:default;font-size:11px;fill:#666;" opacity="1"><tspan x="52">75</tspan></text></g><g class="highcharts-tooltip"  style="cursor:default;padding:0;white-space:nowrap;" transform="translate(0,-9999)"><rect x="0.5" y="0.5" width="16" height="16" fill="none" fill-opacity="0.85" rx="3" ry="3"  stroke="black" stroke-opacity="0.049999999999999996" stroke-width="5" transform="translate(1, 1)"></rect><rect x="0.5" y="0.5" width="16" height="16" fill="none" fill-opacity="0.85" rx="3" ry="3"  stroke="black" stroke-opacity="0.09999999999999999" stroke-width="3" transform="translate(1, 1)"></rect><rect x="0.5" y="0.5" width="16" height="16" fill="none" fill-opacity="0.85" rx="3" ry="3"  stroke="black" stroke-opacity="0.15" stroke-width="1" transform="translate(1, 1)"></rect><rect x="0.5" y="0.5" width="16" height="16" fill="rgb(255,255,255)" fill-opacity="0.85" rx="3" ry="3"></rect><text x="8" y="21"  style="font-size:12px;color:#333333;fill:#333333;"></text></g><text x="590" y="395" text-anchor="end"  style="cursor:pointer;color:#909090;font-size:9px;fill:#909090;"><tspan x="590">Highcharts.com</tspan></text></svg>