<?xml version="1.0" standalone="no"?><!DOCTYPE svg PUBLIC "-//W3C//DTD SVG 1.1//EN" "http://www.w3.org/Graphics/SVG/1.1/DTD/svg11.dtd"><svg xmlns:xlink="http://www.w3.org/1999/xlink" version="1.1" style="font-family:'lucida grande', 'lucida sans unicode', verdana, arial, helvetica, sans-serif;font-size:12px;" xmlns="http://www.w3.org/2000/svg" width="600" height="400"><desc>Created with Highcharts 3.0.10</desc><defs><clipPath id="highcharts-7"><rect x="0" y="0" width="533" height="283"></rect></clipPath></defs><rect x="0" y="0" width="600" height="400" fill="#FFFFFF" class=" highcharts-background"></rect><g class="highcharts-grid" ></g><g class="highcharts-grid" ><path fill="none" d="M 57 53.5 L 590 53.5" stroke="#C0C0C0" stroke-width="1"  opacity="1"></path><path fill="none" d="M 57 125.5 L 590 125.5" stroke="#C0C0C0" stroke-width="1"  opacity="1"></path><path fill="none" d="M 57 196.5 L 590 196.5" stroke="#C0C0C0" stroke-width="1"  opacity="1"></path><path fill="none" d="M 57 266.5 L 590 266.5" stroke="#C0C0C0" stroke-width="1"  opacity="1"></path><path fill="none" d="M 57 337.5 L 590 337.5" stroke="#C0C0C0" stroke-width="1"  opacity="1"></path></g><g class="highcharts-axis" ><path fill="none" d="M 170.5 337 L 170.5 342" stroke="#C0D0E0" stroke-width="1" opacity="1"></path><path fill="none" d="M 246.5 337 L 246.5 342" stroke="#C0D0E0" stroke-width="1" opacity="1"></path><path fill="none" d="M 323.5 337 L 323.5 342" stroke="#C0D0E0" stroke-width="1" opacity="1"></path><path fill="none" d="M 399.5 337 L 399.5 342" stroke="#C0D0E0" stroke-width="1" opacity="1"></path><path fill="none" d="M 475.5 337 L 475.5 342" stroke="#C0D0E0" stroke-width="1" opacity="1"></path><path fill="none" d="M 551.5 337 L 551.5 342" stroke="#C0D0E0" stroke-width="1" opacity="1"></path><path fill="none" d="M 94.5 337 L 94.5 342" stroke="#C0D0E0" stroke-width="1" opacity="1"></path><path fill="none" d="M 57 337.5 L 590 337.5" stroke="#C0D0E0" stroke-width="1"  visibility="visible"></path></g><g class="highcharts-axis" ><text x="24" y="195.5"  text-anchor="middle" transform="translate(0,0) rotate(270 24 195.5)" class=" highcharts-yaxis-title" style="color:#4d759e;font-weight:bold;fill:#4d759e;" visibility="visible"><tspan x="24">Billions</tspan></text></g><g class="highcharts-series-group" ><g class="highcharts-series" visibility="visible"  transform="translate(57,54) scale(1 1)" clip-path="url(#highcharts-7)"><path fill="rgb(47,126,216)" d="M 38.07142857142857 260.6147 L 114.21428571428571 255.3226 L 190.35714285714283 247.5684 L 266.5 236.305 L 342.6428571428571 211.62740000000002 L 418.7857142857142 113.8226 L 494.9285714285714 30.87530000000001 494.9285714285714 179.9597 418.7857142857142 216.6648 342.6428571428571 251.304 266.5 263.1051 190.35714285714283 270.4631 114.21428571428571 273.2931 38.07142857142857 274.8213" fill-opacity="0.75" ></path><path fill="none" d="M 38.07142857142857 260.6147 L 114.21428571428571 255.3226 L 190.35714285714283 247.5684 L 266.5 236.305 L 342.6428571428571 211.62740000000002 L 418.7857142857142 113.8226 L 494.9285714285714 30.87530000000001" stroke="#666666" stroke-width="1"  stroke-linejoin="round" stroke-linecap="round"></path><path fill="none" d="M 28.07142857142857 260.6147 L 38.07142857142857 260.6147 L 114.21428571428571 255.3226 L 190.35714285714283 247.5684 L 266.5 236.305 L 342.6428571428571 211.62740000000002 L 418.7857142857142 113.8226 L 494.9285714285714 30.87530000000001 L 504.9285714285714 30.87530000000001" stroke-linejoin="round" visibility="visible" stroke-opacity="0.0001" stroke="rgb(192,192,192)" stroke-width="21"  class=" highcharts-tracker" style=""></path></g><g class="highcharts-markers highcharts-tracker" visibility="visible"  transform="translate(57,54) scale(1 1)" style="" clip-path="none"><path fill="#2f7ed8" d="M 494 26.87530000000001 C 499.328 26.87530000000001 499.328 34.87530000000001 494 34.87530000000001 C 488.672 34.87530000000001 488.672 26.87530000000001 494 26.87530000000001 Z" stroke="#666666" stroke-width="1"></path><path fill="#2f7ed8" d="M 418 109.8226 C 423.328 109.8226 423.328 117.8226 418 117.8226 C 412.672 117.8226 412.672 109.8226 418 109.8226 Z" stroke="#666666" stroke-width="1"></path><path fill="#2f7ed8" d="M 342 207.62740000000002 C 347.328 207.62740000000002 347.328 215.62740000000002 342 215.62740000000002 C 336.672 215.62740000000002 336.672 207.62740000000002 342 207.62740000000002 Z" stroke="#666666" stroke-width="1"></path><path fill="#2f7ed8" d="M 266 232.305 C 271.328 232.305 271.328 240.305 266 240.305 C 260.672 240.305 260.672 232.305 266 232.305 Z" stroke="#666666" stroke-width="1"></path><path fill="#2f7ed8" d="M 190 243.5684 C 195.328 243.5684 195.328 251.5684 190 251.5684 C 184.672 251.5684 184.672 243.5684 190 243.5684 Z" stroke="#666666" stroke-width="1"></path><path fill="#2f7ed8" d="M 114 251.3226 C 119.328 251.3226 119.328 259.32259999999997 114 259.32259999999997 C 108.672 259.32259999999997 108.672 251.3226 114 251.3226 Z" stroke="#666666" stroke-width="1"></path><path fill="#2f7ed8" d="M 38 256.6147 C 43.328 256.6147 43.328 264.6147 38 264.6147 C 32.672 264.6147 32.672 256.6147 38 256.6147 Z" stroke="#666666" stroke-width="1"></path></g><g class="highcharts-series" visibility="visible"  transform="translate(57,54) scale(1 1)" clip-path="url(#highcharts-7)"><path fill="rgb(13,35,58)" d="M 38.07142857142857 274.8213 L 114.21428571428571 273.2931 L 190.35714285714283 270.4631 L 266.5 263.1051 L 342.6428571428571 251.304 L 418.7857142857142 216.6648 L 494.9285714285714 179.9597 494.9285714285714 229.9375 418.7857142857142 238.3709 342.6428571428571 257.55830000000003 266.5 266.869 190.35714285714283 273.6044 114.21428571428571 276.3212 38.07142857142857 277.8211" fill-opacity="0.75" ></path><path fill="none" d="M 38.07142857142857 274.8213 L 114.21428571428571 273.2931 L 190.35714285714283 270.4631 L 266.5 263.1051 L 342.6428571428571 251.304 L 418.7857142857142 216.6648 L 494.9285714285714 179.9597" stroke="#666666" stroke-width="1"  stroke-linejoin="round" stroke-linecap="round"></path><path fill="none" d="M 28.07142857142857 274.8213 L 38.07142857142857 274.8213 L 114.21428571428571 273.2931 L 190.35714285714283 270.4631 L 266.5 263.1051 L 342.6428571428571 251.304 L 418.7857142857142 216.6648 L 494.9285714285714 179.9597 L 504.9285714285714 179.9597" stroke-linejoin="round" visibility="visible" stroke-opacity="0.0001" stroke="rgb(192,192,192)" stroke-width="21"  class=" highcharts-tracker" style=""></path></g><g class="highcharts-markers highcharts-tracker" visibility="visible"  transform="translate(57,54) scale(1 1)" style="" clip-path="none"><path fill="#0d233a" d="M 494 175.9597 L 498 179.9597 494 183.9597 490 179.9597 Z" stroke="#666666" stroke-width="1"></path><path fill="#0d233a" d="M 418 212.6648 L 422 216.6648 418 220.6648 414 216.6648 Z" stroke="#666666" stroke-width="1"></path><path fill="#0d233a" d="M 342 247.304 L 346 251.304 342 255.304 338 251.304 Z" stroke="#666666" stroke-width="1"></path><path fill="#0d233a" d="M 266 259.1051 L 270 263.1051 266 267.1051 262 263.1051 Z" stroke="#666666" stroke-width="1"></path><path fill="#0d233a" d="M 190 266.4631 L 194 270.4631 190 274.4631 186 270.4631 Z" stroke="#666666" stroke-width="1"></path><path fill="#0d233a" d="M 114 269.2931 L 118 273.2931 114 277.2931 110 273.2931 Z" stroke="#666666" stroke-width="1"></path><path fill="#0d233a" d="M 38 270.8213 L 42 274.8213 38 278.8213 34 274.8213 Z" stroke="#666666" stroke-width="1"></path></g><g class="highcharts-series" visibility="visible"  transform="translate(57,54) scale(1 1)" clip-path="url(#highcharts-7)"><path fill="rgb(139,188,33)" d="M 38.07142857142857 277.8211 L 114.21428571428571 276.3212 L 190.35714285714283 273.6044 L 266.5 266.869 L 342.6428571428571 257.55830000000003 L 418.7857142857142 238.3709 L 494.9285714285714 229.9375 494.9285714285714 247.7099 418.7857142857142 259.0016 342.6428571428571 273.0384 266.5 278.4154 190.35714285714283 281.4152 114.21428571428571 282.0661 38.07142857142857 282.434" fill-opacity="0.75" ></path><path fill="none" d="M 38.07142857142857 277.8211 L 114.21428571428571 276.3212 L 190.35714285714283 273.6044 L 266.5 266.869 L 342.6428571428571 257.55830000000003 L 418.7857142857142 238.3709 L 494.9285714285714 229.9375" stroke="#666666" stroke-width="1"  stroke-linejoin="round" stroke-linecap="round"></path><path fill="none" d="M 28.07142857142857 277.8211 L 38.07142857142857 277.8211 L 114.21428571428571 276.3212 L 190.35714285714283 273.6044 L 266.5 266.869 L 342.6428571428571 257.55830000000003 L 418.7857142857142 238.3709 L 494.9285714285714 229.9375 L 504.9285714285714 229.9375" stroke-linejoin="round" visibility="visible" stroke-opacity="0.0001" stroke="rgb(192,192,192)" stroke-width="21"  class=" highcharts-tracker" style=""></path></g><g class="highcharts-markers highcharts-tracker" visibility="visible"  transform="translate(57,54) scale(1 1)" style="" clip-path="none"><path fill="#8bbc21" d="M 490 225.9375 L 498 225.9375 498 233.9375 490 233.9375 Z" stroke="#666666" stroke-width="1"></path><path fill="#8bbc21" d="M 414 234.3709 L 422 234.3709 422 242.3709 414 242.3709 Z" stroke="#666666" stroke-width="1"></path><path fill="#8bbc21" d="M 338 253.55830000000003 L 346 253.55830000000003 346 261.55830000000003 338 261.55830000000003 Z" stroke="#666666" stroke-width="1"></path><path fill="#8bbc21" d="M 262 262.869 L 270 262.869 270 270.869 262 270.869 Z" stroke="#666666" stroke-width="1"></path><path fill="#8bbc21" d="M 186 269.6044 L 194 269.6044 194 277.6044 186 277.6044 Z" stroke="#666666" stroke-width="1"></path><path fill="#8bbc21" d="M 110 272.3212 L 118 272.3212 118 280.3212 110 280.3212 Z" stroke="#666666" stroke-width="1"></path><path fill="#8bbc21" d="M 34 273.8211 L 42 273.8211 42 281.8211 34 281.8211 Z" stroke="#666666" stroke-width="1"></path></g><g class="highcharts-series" visibility="visible"  transform="translate(57,54) scale(1 1)" clip-path="url(#highcharts-7)"><path fill="rgb(145,0,0)" d="M 38.07142857142857 282.434 L 114.21428571428571 282.0661 L 190.35714285714283 281.4152 L 266.5 278.4154 L 342.6428571428571 273.0384 L 418.7857142857142 259.0016 L 494.9285714285714 247.7099 494.9285714285714 281.6982 418.7857142857142 282.151 342.6428571428571 282.6321 266.5 282.8302 190.35714285714283 282.9434 114.21428571428571 282.9434 38.07142857142857 282.9434" fill-opacity="0.75" ></path><path fill="none" d="M 38.07142857142857 282.434 L 114.21428571428571 282.0661 L 190.35714285714283 281.4152 L 266.5 278.4154 L 342.6428571428571 273.0384 L 418.7857142857142 259.0016 L 494.9285714285714 247.7099" stroke="#666666" stroke-width="1"  stroke-linejoin="round" stroke-linecap="round"></path><path fill="none" d="M 28.07142857142857 282.434 L 38.07142857142857 282.434 L 114.21428571428571 282.0661 L 190.35714285714283 281.4152 L 266.5 278.4154 L 342.6428571428571 273.0384 L 418.7857142857142 259.0016 L 494.9285714285714 247.7099 L 504.9285714285714 247.7099" stroke-linejoin="round" visibility="visible" stroke-opacity="0.0001" stroke="rgb(192,192,192)" stroke-width="21"  class=" highcharts-tracker" style=""></path></g><g class="highcharts-markers highcharts-tracker" visibility="visible"  transform="translate(57,54) scale(1 1)" style="" clip-path="none"><path fill="#910000" d="M 494 243.7099 L 498 251.7099 490 251.7099 Z" stroke="#666666" stroke-width="1"></path><path fill="#910000" d="M 418 255.0016 L 422 263.0016 414 263.0016 Z" stroke="#666666" stroke-width="1"></path><path fill="#910000" d="M 342 269.0384 L 346 277.0384 338 277.0384 Z" stroke="#666666" stroke-width="1"></path><path fill="#910000" d="M 266 274.4154 L 270 282.4154 262 282.4154 Z" stroke="#666666" stroke-width="1"></path><path fill="#910000" d="M 190 277.4152 L 194 285.4152 186 285.4152 Z" stroke="#666666" stroke-width="1"></path><path fill="#910000" d="M 114 278.0661 L 118 286.0661 110 286.0661 Z" stroke="#666666" stroke-width="1"></path><path fill="#910000" d="M 38 278.434 L 42 286.434 34 286.434 Z" stroke="#666666" stroke-width="1"></path></g><g class="highcharts-series" visibility="visible"  transform="translate(57,54) scale(1 1)" clip-path="url(#highcharts-7)"><path fill="rgb(26,173,206)" d="M 38.07142857142857 282.9434 L 114.21428571428571 282.9434 L 190.35714285714283 282.9434 L 266.5 282.8302 L 342.6428571428571 282.6321 L 418.7857142857142 282.151 L 494.9285714285714 281.6982 494.9285714285714 283 418.7857142857142 283 342.6428571428571 283 266.5 283 190.35714285714283 283 114.21428571428571 283 38.07142857142857 283" fill-opacity="0.75" ></path><path fill="none" d="M 38.07142857142857 282.9434 L 114.21428571428571 282.9434 L 190.35714285714283 282.9434 L 266.5 282.8302 L 342.6428571428571 282.6321 L 418.7857142857142 282.151 L 494.9285714285714 281.6982" stroke="#666666" stroke-width="1"  stroke-linejoin="round" stroke-linecap="round"></path><path fill="none" d="M 28.07142857142857 282.9434 L 38.07142857142857 282.9434 L 114.21428571428571 282.9434 L 190.35714285714283 282.9434 L 266.5 282.8302 L 342.6428571428571 282.6321 L 418.7857142857142 282.151 L 494.9285714285714 281.6982 L 504.9285714285714 281.6982" stroke-linejoin="round" visibility="visible" stroke-opacity="0.0001" stroke="rgb(192,192,192)" stroke-width="21"  class=" highcharts-tracker" style=""></path></g><g class="highcharts-markers highcharts-tracker" visibility="visible"  transform="translate(57,54) scale(1 1)" style="" clip-path="none"><path fill="#1aadce" d="M 490 277.6982 L 498 277.6982 494 285.6982 Z" stroke="#666666" stroke-width="1"></path><path fill="#1aadce" d="M 414 278.151 L 422 278.151 418 286.151 Z" stroke="#666666" stroke-width="1"></path><path fill="#1aadce" d="M 338 278.6321 L 346 278.6321 342 286.6321 Z" stroke="#666666" stroke-width="1"></path><path fill="#1aadce" d="M 262 278.8302 L 270 278.8302 266 286.8302 Z" stroke="#666666" stroke-width="1"></path><path fill="#1aadce" d="M 186 278.9434 L 194 278.9434 190 286.9434 Z" stroke="#666666" stroke-width="1"></path><path fill="#1aadce" d="M 110 278.9434 L 118 278.9434 114 286.9434 Z" stroke="#666666" stroke-width="1"></path><path fill="#1aadce" d="M 34 278.9434 L 42 278.9434 38 286.9434 Z" stroke="#666666" stroke-width="1"></path></g></g><text x="300" y="25" text-anchor="middle" class="highcharts-title"  style="color:#274b6d;font-size:16px;fill:#274b6d;width:536px;"><tspan x="300">Historic and Estimated Worldwide Population Growth by Region</tspan></text><text x="300" y="40" text-anchor="middle" class="highcharts-subtitle"  style="color:#4d759e;fill:#4d759e;width:536px;"><tspan x="300">Source: Wikipedia.org</tspan></text><g class="highcharts-legend"  transform="translate(131,360)"><rect x="0.5" y="0.5" width="338" height="24" rx="5" ry="5" stroke="#909090" stroke-width="1" fill="none" visibility="visible"></rect><g ><g><g class="highcharts-legend-item"  transform="translate(8,3)"><text x="21" y="15" style="color:#274b6d;font-size:12px;cursor:pointer;fill:#274b6d;" text-anchor="start" ><tspan x="21">Asia</tspan></text><rect x="0" y="4" width="16" height="12" rx="2" ry="2"  fill="#2f7ed8"></rect></g><g class="highcharts-legend-item"  transform="translate(61,3)"><text x="21" y="15" style="color:#274b6d;font-size:12px;cursor:pointer;fill:#274b6d;" text-anchor="start" ><tspan x="21">Africa</tspan></text><rect x="0" y="4" width="16" height="12" rx="2" ry="2"  fill="#0d233a"></rect></g><g class="highcharts-legend-item"  transform="translate(121,3)"><text x="21" y="15" style="color:#274b6d;font-size:12px;cursor:pointer;fill:#274b6d;" text-anchor="start" ><tspan x="21">Europe</tspan></text><rect x="0" y="4" width="16" height="12" rx="2" ry="2"  fill="#8bbc21"></rect></g><g class="highcharts-legend-item"  transform="translate(190,3)"><text x="21" y="15" style="color:#274b6d;font-size:12px;cursor:pointer;fill:#274b6d;" text-anchor="start" ><tspan x="21">America</tspan></text><rect x="0" y="4" width="16" height="12" rx="2" ry="2"  fill="#910000"></rect></g><g class="highcharts-legend-item"  transform="translate(264,3)"><text x="21" y="15" style="color:#274b6d;font-size:12px;cursor:pointer;fill:#274b6d;" text-anchor="start" ><tspan x="21">Oceania</tspan></text><rect x="0" y="4" width="16" height="12" rx="2" ry="2"  fill="#1aadce"></rect></g></g></g></g><g class="highcharts-axis-labels highcharts-xaxis-labels" ><text x="95.07142857142857" y="351" text-anchor="middle" style="width:57px;color:#666;cursor:default;font-size:11px;fill:#666;" opacity="1"><tspan x="95.07142857142857">1750</tspan></text><text x="171.21428571428572" y="351" text-anchor="middle" style="width:57px;color:#666;cursor:default;font-size:11px;fill:#666;" opacity="1"><tspan x="171.21428571428572">1800</tspan></text><text x="247.35714285714283" y="351" text-anchor="middle" style="width:57px;color:#666;cursor:default;font-size:11px;fill:#666;" opacity="1"><tspan x="247.35714285714283">1850</tspan></text><text x="323.5" y="351" text-anchor="middle" style="width:57px;color:#666;cursor:default;font-size:11px;fill:#666;" opacity="1"><tspan x="323.5">1900</tspan></text><text x="399.6428571428571" y="351" text-anchor="middle" style="width:57px;color:#666;cursor:default;font-size:11px;fill:#666;" opacity="1"><tspan x="399.6428571428571">1950</tspan></text><text x="475.7857142857142" y="351" text-anchor="middle" style="width:57px;color:#666;cursor:default;font-size:11px;fill:#666;" opacity="1"><tspan x="475.7857142857142">1999</tspan></text><text x="551.9285714285713" y="351" text-anchor="middle" style="width:57px;color:#666;cursor:default;font-size:11px;fill:#666;" opacity="1"><tspan x="551.9285714285713">2050</tspan></text></g><g class="highcharts-axis-labels highcharts-yaxis-labels" ><text x="49" y="342.5" text-anchor="end" style="width:178px;color:#666;cursor:default;font-size:11px;fill:#666;" opacity="1"><tspan x="49">0</tspan></text><text x="49" y="59.5" text-anchor="end" style="width:178px;color:#666;cursor:default;font-size:11px;fill:#666;" opacity="1"><tspan x="49">10</tspan></text><text x="49" y="271.75" text-anchor="end" style="width:178px;color:#666;cursor:default;font-size:11px;fill:#666;" opacity="1"><tspan x="49">2.5</tspan></text><text x="49" y="201" text-anchor="end" style="width:178px;color:#666;cursor:default;font-size:11px;fill:#666;" opacity="1"><tspan x="49">5</tspan></text><text x="49" y="130.25" text-anchor="end" style="width:178px;color:#666;cursor:default;font-size:11px;fill:#666;" opacity="1"><tspan x="49">7.5</tspan></text></g><g class="highcharts-tooltip"  style="cursor:default;padding:0;white-space:nowrap;" transform="translate(0,-9999)"><rect x="0.5" y="0.5" width="16" height="16" fill="none" fill-opacity="0.85" rx="3" ry="3"  stroke="black" stroke-opacity="0.049999999999999996" stroke-width="5" transform="translate(1, 1)"></rect><rect x="0.5" y="0.5" width="16" height="16" fill="none" fill-opacity="0.85" rx="3" ry="3"  stroke="black" stroke-opacity="0.09999999999999999" stroke-width="3" transform="translate(1, 1)"></rect><rect x="0.5" y="0.5" width="16" height="16" fill="none" fill-opacity="0.85" rx="3" ry="3"  stroke="black" stroke-opacity="0.15" stroke-width="1" transform="translate(1, 1)"></rect><rect x="0.5" y="0.5" width="16" height="16" fill="rgb(255,255,255)" fill-opacity="0.85" rx="3" ry="3"></rect><text x="8" y="21"  style="font-size:12px;color:#333333;fill:#333333;"></text></g><text x="590" y="395" text-anchor="end"  style="cursor:pointer;color:#909090;font-size:9px;fill:#909090;"><tspan x="590">Highcharts.com</tspan></text></svg>