<?xml version="1.0" standalone="no"?><!DOCTYPE svg PUBLIC "-//W3C//DTD SVG 1.1//EN" "http://www.w3.org/Graphics/SVG/1.1/DTD/svg11.dtd"><svg xmlns:xlink="http://www.w3.org/1999/xlink" version="1.1" style="font-family:'lucida grande', 'lucida sans unicode', verdana, arial, helvetica, sans-serif;font-size:12px;" xmlns="http://www.w3.org/2000/svg" width="600" height="400"><desc>Created with Highcharts 3.0.10</desc><defs><clipPath id="highcharts-5"><rect x="0" y="0" width="530" height="283"></rect></clipPath></defs><rect x="0" y="0" width="600" height="400" fill="#FFFFFF" class=" highcharts-background"></rect><g class="highcharts-grid" ></g><g class="highcharts-grid" ><path fill="none" d="M 60 53.5 L 590 53.5" stroke="#C0C0C0" stroke-width="1"  opacity="1"></path><path fill="none" d="M 60 111.5 L 590 111.5" stroke="#C0C0C0" stroke-width="1"  opacity="1"></path><path fill="none" d="M 60 167.5 L 590 167.5" stroke="#C0C0C0" stroke-width="1"  opacity="1"></path><path fill="none" d="M 60 224.5 L 590 224.5" stroke="#C0C0C0" stroke-width="1"  opacity="1"></path><path fill="none" d="M 60 280.5 L 590 280.5" stroke="#C0C0C0" stroke-width="1"  opacity="1"></path><path fill="none" d="M 60 337.5 L 590 337.5" stroke="#C0C0C0" stroke-width="1"  opacity="1"></path></g><g class="highcharts-axis" ><path fill="none" d="M 147.5 337 L 147.5 342" stroke="#C0D0E0" stroke-width="1" opacity="1"></path><path fill="none" d="M 192.5 337 L 192.5 342" stroke="#C0D0E0" stroke-width="1" opacity="1"></path><path fill="none" d="M 236.5 337 L 236.5 342" stroke="#C0D0E0" stroke-width="1" opacity="1"></path><path fill="none" d="M 280.5 337 L 280.5 342" stroke="#C0D0E0" stroke-width="1" opacity="1"></path><path fill="none" d="M 324.5 337 L 324.5 342" stroke="#C0D0E0" stroke-width="1" opacity="1"></path><path fill="none" d="M 368.5 337 L 368.5 342" stroke="#C0D0E0" stroke-width="1" opacity="1"></path><path fill="none" d="M 412.5 337 L 412.5 342" stroke="#C0D0E0" stroke-width="1" opacity="1"></path><path fill="none" d="M 456.5 337 L 456.5 342" stroke="#C0D0E0" stroke-width="1" opacity="1"></path><path fill="none" d="M 501.5 337 L 501.5 342" stroke="#C0D0E0" stroke-width="1" opacity="1"></path><path fill="none" d="M 545.5 337 L 545.5 342" stroke="#C0D0E0" stroke-width="1" opacity="1"></path><path fill="none" d="M 590.5 337 L 590.5 342" stroke="#C0D0E0" stroke-width="1" opacity="1"></path><path fill="none" d="M 103.5 337 L 103.5 342" stroke="#C0D0E0" stroke-width="1" opacity="1"></path><path fill="none" d="M 59.5 337 L 59.5 342" stroke="#C0D0E0" stroke-width="1"></path><path fill="none" d="M 60 337.5 L 590 337.5" stroke="#C0D0E0" stroke-width="1"  visibility="visible"></path></g><g class="highcharts-axis" ><text x="24" y="195.5"  text-anchor="middle" transform="translate(0,0) rotate(270 24 195.5)" class=" highcharts-yaxis-title" style="color:#4d759e;font-weight:bold;fill:#4d759e;" visibility="visible"><tspan x="24">Rainfall (mm)</tspan></text></g><g class="highcharts-series-group" ><g class="highcharts-series highcharts-tracker" visibility="visible"  transform="translate(60,54) scale(1 1)" style="" clip-path="url(#highcharts-5)"><rect x="10" y="228" width="4" height="56" fill="#2f7ed8" rx="0" ry="0"></rect><rect x="54" y="203" width="4" height="81" fill="#2f7ed8" rx="0" ry="0"></rect><rect x="98" y="164" width="4" height="120" fill="#2f7ed8" rx="0" ry="0"></rect><rect x="143" y="138" width="4" height="146" fill="#2f7ed8" rx="0" ry="0"></rect><rect x="187" y="121" width="4" height="163" fill="#2f7ed8" rx="0" ry="0"></rect><rect x="231" y="85" width="4" height="199" fill="#2f7ed8" rx="0" ry="0"></rect><rect x="275" y="131" width="4" height="153" fill="#2f7ed8" rx="0" ry="0"></rect><rect x="319" y="116" width="4" height="168" fill="#2f7ed8" rx="0" ry="0"></rect><rect x="363" y="39" width="4" height="245" fill="#2f7ed8" rx="0" ry="0"></rect><rect x="408" y="64" width="4" height="220" fill="#2f7ed8" rx="0" ry="0"></rect><rect x="452" y="176" width="4" height="108" fill="#2f7ed8" rx="0" ry="0"></rect><rect x="496" y="222" width="4" height="62" fill="#2f7ed8" rx="0" ry="0"></rect></g><g class="highcharts-markers" visibility="visible"  transform="translate(60,54) scale(1 1)" clip-path="none"></g><g class="highcharts-series highcharts-tracker" visibility="visible"  transform="translate(60,54) scale(1 1)" style="" clip-path="url(#highcharts-5)"><rect x="17" y="189" width="4" height="95" fill="#0d233a" rx="0" ry="0"></rect><rect x="61" y="195" width="4" height="89" fill="#0d233a" rx="0" ry="0"></rect><rect x="105" y="172" width="4" height="112" fill="#0d233a" rx="0" ry="0"></rect><rect x="149" y="178" width="4" height="106" fill="#0d233a" rx="0" ry="0"></rect><rect x="193" y="164" width="4" height="120" fill="#0d233a" rx="0" ry="0"></rect><rect x="238" y="188" width="4" height="96" fill="#0d233a" rx="0" ry="0"></rect><rect x="282" y="165" width="4" height="119" fill="#0d233a" rx="0" ry="0"></rect><rect x="326" y="166" width="4" height="118" fill="#0d233a" rx="0" ry="0"></rect><rect x="370" y="181" width="4" height="103" fill="#0d233a" rx="0" ry="0"></rect><rect x="414" y="189" width="4" height="95" fill="#0d233a" rx="0" ry="0"></rect><rect x="458" y="163" width="4" height="121" fill="#0d233a" rx="0" ry="0"></rect><rect x="503" y="180" width="4" height="104" fill="#0d233a" rx="0" ry="0"></rect></g><g class="highcharts-markers" visibility="visible"  transform="translate(60,54) scale(1 1)" clip-path="none"></g><g class="highcharts-series highcharts-tracker" visibility="visible"  transform="translate(60,54) scale(1 1)" style="" clip-path="url(#highcharts-5)"><rect x="23" y="229" width="4" height="55" fill="#8bbc21" rx="0" ry="0"></rect><rect x="68" y="240" width="4" height="44" fill="#8bbc21" rx="0" ry="0"></rect><rect x="112" y="240" width="4" height="44" fill="#8bbc21" rx="0" ry="0"></rect><rect x="156" y="237" width="4" height="47" fill="#8bbc21" rx="0" ry="0"></rect><rect x="200" y="231" width="4" height="53" fill="#8bbc21" rx="0" ry="0"></rect><rect x="244" y="229" width="4" height="55" fill="#8bbc21" rx="0" ry="0"></rect><rect x="288" y="217" width="4" height="67" fill="#8bbc21" rx="0" ry="0"></rect><rect x="333" y="217" width="4" height="67" fill="#8bbc21" rx="0" ry="0"></rect><rect x="377" y="225" width="4" height="59" fill="#8bbc21" rx="0" ry="0"></rect><rect x="421" y="210" width="4" height="74" fill="#8bbc21" rx="0" ry="0"></rect><rect x="465" y="217" width="4" height="67" fill="#8bbc21" rx="0" ry="0"></rect><rect x="509" y="226" width="4" height="58" fill="#8bbc21" rx="0" ry="0"></rect></g><g class="highcharts-markers" visibility="visible"  transform="translate(60,54) scale(1 1)" clip-path="none"></g><g class="highcharts-series highcharts-tracker" visibility="visible"  transform="translate(60,54) scale(1 1)" style="" clip-path="url(#highcharts-5)"><rect x="30" y="236" width="4" height="48" fill="#910000" rx="0" ry="0"></rect><rect x="74" y="246" width="4" height="38" fill="#910000" rx="0" ry="0"></rect><rect x="118" y="245" width="4" height="39" fill="#910000" rx="0" ry="0"></rect><rect x="163" y="239" width="4" height="45" fill="#910000" rx="0" ry="0"></rect><rect x="207" y="224" width="4" height="60" fill="#910000" rx="0" ry="0"></rect><rect x="251" y="199" width="4" height="85" fill="#910000" rx="0" ry="0"></rect><rect x="295" y="219" width="4" height="65" fill="#910000" rx="0" ry="0"></rect><rect x="339" y="216" width="4" height="68" fill="#910000" rx="0" ry="0"></rect><rect x="383" y="230" width="4" height="54" fill="#910000" rx="0" ry="0"></rect><rect x="428" y="240" width="4" height="44" fill="#910000" rx="0" ry="0"></rect><rect x="472" y="231" width="4" height="53" fill="#910000" rx="0" ry="0"></rect><rect x="516" y="226" width="4" height="58" fill="#910000" rx="0" ry="0"></rect></g><g class="highcharts-markers" visibility="visible"  transform="translate(60,54) scale(1 1)" clip-path="none"></g></g><text x="300" y="25" text-anchor="middle" class="highcharts-title"  style="color:#274b6d;font-size:16px;fill:#274b6d;width:536px;"><tspan x="300">Monthly Average Rainfall</tspan></text><text x="300" y="40" text-anchor="middle" class="highcharts-subtitle"  style="color:#4d759e;fill:#4d759e;width:536px;"><tspan x="300">Source: WorldClimate.com</tspan></text><g class="highcharts-legend"  transform="translate(158,360)"><rect x="0.5" y="0.5" width="283" height="24" rx="5" ry="5" stroke="#909090" stroke-width="1" fill="none" visibility="visible"></rect><g ><g><g class="highcharts-legend-item"  transform="translate(8,3)"><text x="21" y="15" style="color:#274b6d;font-size:12px;cursor:pointer;fill:#274b6d;" text-anchor="start" ><tspan x="21">Tokyo</tspan></text><rect x="0" y="4" width="16" height="12" rx="2" ry="2"  fill="#2f7ed8"></rect></g><g class="highcharts-legend-item"  transform="translate(70,3)"><text x="21" y="15" style="color:#274b6d;font-size:12px;cursor:pointer;fill:#274b6d;" text-anchor="start" ><tspan x="21">New York</tspan></text><rect x="0" y="4" width="16" height="12" rx="2" ry="2"  fill="#0d233a"></rect></g><g class="highcharts-legend-item"  transform="translate(152,3)"><text x="21" y="15" style="color:#274b6d;font-size:12px;cursor:pointer;fill:#274b6d;" text-anchor="start" ><tspan x="21">London</tspan></text><rect x="0" y="4" width="16" height="12" rx="2" ry="2"  fill="#8bbc21"></rect></g><g class="highcharts-legend-item"  transform="translate(223,3)"><text x="21" y="15" style="color:#274b6d;font-size:12px;cursor:pointer;fill:#274b6d;" text-anchor="start" ><tspan x="21">Berlin</tspan></text><rect x="0" y="4" width="16" height="12" rx="2" ry="2"  fill="#910000"></rect></g></g></g></g><g class="highcharts-axis-labels highcharts-xaxis-labels" ><text x="82.08333333333333" y="351" text-anchor="middle" style="width:24px;color:#666;cursor:default;font-size:11px;fill:#666;" opacity="1"><tspan x="82.08333333333333">Jan</tspan></text><text x="126.24999999999999" y="351" text-anchor="middle" style="width:24px;color:#666;cursor:default;font-size:11px;fill:#666;" opacity="1"><tspan x="126.24999999999999">Feb</tspan></text><text x="170.41666666666666" y="351" text-anchor="middle" style="width:24px;color:#666;cursor:default;font-size:11px;fill:#666;" opacity="1"><tspan x="170.41666666666666">Mar</tspan></text><text x="214.58333333333331" y="351" text-anchor="middle" style="width:24px;color:#666;cursor:default;font-size:11px;fill:#666;" opacity="1"><tspan x="214.58333333333331">Apr</tspan></text><text x="258.75000000000006" y="351" text-anchor="middle" style="width:24px;color:#666;cursor:default;font-size:11px;fill:#666;" opacity="1"><tspan x="258.75000000000006">May</tspan></text><text x="302.9166666666667" y="351" text-anchor="middle" style="width:24px;color:#666;cursor:default;font-size:11px;fill:#666;" opacity="1"><tspan x="302.9166666666667">Jun</tspan></text><text x="347.0833333333333" y="351" text-anchor="middle" style="width:24px;color:#666;cursor:default;font-size:11px;fill:#666;" opacity="1"><tspan x="347.0833333333333">Jul</tspan></text><text x="391.25" y="351" text-anchor="middle" style="width:24px;color:#666;cursor:default;font-size:11px;fill:#666;" opacity="1"><tspan x="391.25">Aug</tspan></text><text x="435.41666666666663" y="351" text-anchor="middle" style="width:24px;color:#666;cursor:default;font-size:11px;fill:#666;" opacity="1"><tspan x="435.41666666666663">Sep</tspan></text><text x="479.5833333333333" y="351" text-anchor="middle" style="width:24px;color:#666;cursor:default;font-size:11px;fill:#666;" opacity="1"><tspan x="479.5833333333333">Oct</tspan></text><text x="523.7499999999999" y="351" text-anchor="middle" style="width:24px;color:#666;cursor:default;font-size:11px;fill:#666;" opacity="1"><tspan x="523.7499999999999">Nov</tspan></text><text x="567.9166666666666" y="351" text-anchor="middle" style="width:24px;color:#666;cursor:default;font-size:11px;fill:#666;" opacity="1"><tspan x="567.9166666666666">Dec</tspan></text></g><g class="highcharts-axis-labels highcharts-yaxis-labels" ><text x="52" y="342.5" text-anchor="end" style="width:178px;color:#666;cursor:default;font-size:11px;fill:#666;" opacity="1"><tspan x="52">0</tspan></text><text x="52" y="285.9" text-anchor="end" style="width:178px;color:#666;cursor:default;font-size:11px;fill:#666;" opacity="1"><tspan x="52">50</tspan></text><text x="52" y="229.3" text-anchor="end" style="width:178px;color:#666;cursor:default;font-size:11px;fill:#666;" opacity="1"><tspan x="52">100</tspan></text><text x="52" y="172.70000000000002" text-anchor="end" style="width:178px;color:#666;cursor:default;font-size:11px;fill:#666;" opacity="1"><tspan x="52">150</tspan></text><text x="52" y="116.10000000000002" text-anchor="end" style="width:178px;color:#666;cursor:default;font-size:11px;fill:#666;" opacity="1"><tspan x="52">200</tspan></text><text x="52" y="59.5" text-anchor="end" style="width:178px;color:#666;cursor:default;font-size:11px;fill:#666;" opacity="1"><tspan x="52">250</tspan></text></g><g class="highcharts-tooltip"  style="cursor:default;padding:0;white-space:nowrap;" transform="translate(0,-9999)"><rect x="0.5" y="0.5" width="16" height="16" fill="none" fill-opacity="0.85" rx="3" ry="3"  stroke="black" stroke-opacity="0.049999999999999996" stroke-width="5" transform="translate(1, 1)"></rect><rect x="0.5" y="0.5" width="16" height="16" fill="none" fill-opacity="0.85" rx="3" ry="3"  stroke="black" stroke-opacity="0.09999999999999999" stroke-width="3" transform="translate(1, 1)"></rect><rect x="0.5" y="0.5" width="16" height="16" fill="none" fill-opacity="0.85" rx="3" ry="3"  stroke="black" stroke-opacity="0.15" stroke-width="1" transform="translate(1, 1)"></rect><rect x="0.5" y="0.5" width="16" height="16" fill="rgb(255,255,255)" fill-opacity="0.85" rx="3" ry="3"></rect><text x="8" y="21"  style="font-size:12px;color:#333333;fill:#333333;"></text></g><text x="590" y="395" text-anchor="end"  style="cursor:pointer;color:#909090;font-size:9px;fill:#909090;"><tspan x="590">Highcharts.com</tspan></text></svg>