<?xml version="1.0" standalone="no"?><!DOCTYPE svg PUBLIC "-//W3C//DTD SVG 1.1//EN" "http://www.w3.org/Graphics/SVG/1.1/DTD/svg11.dtd"><svg xmlns:xlink="http://www.w3.org/1999/xlink" version="1.1" style="font-family:'lucida grande', 'lucida sans unicode', verdana, arial, helvetica, sans-serif;font-size:12px;" xmlns="http://www.w3.org/2000/svg" width="600" height="400"><desc>Created with Highcharts 3.0.10</desc><defs><clipPath id="highcharts-5"><rect x="0" y="0" width="527" height="332"></rect></clipPath></defs><rect x="0" y="0" width="600" height="400" fill="#FFFFFF" class=" highcharts-background"></rect><g class="highcharts-grid" ></g><g class="highcharts-grid" ><path fill="none" d="M 63 39.5 L 590 39.5" stroke="#C0C0C0" stroke-width="1"  opacity="1"></path><path fill="none" d="M 63 106.5 L 590 106.5" stroke="#C0C0C0" stroke-width="1"  opacity="1"></path><path fill="none" d="M 63 173.5 L 590 173.5" stroke="#C0C0C0" stroke-width="1"  opacity="1"></path><path fill="none" d="M 63 239.5 L 590 239.5" stroke="#C0C0C0" stroke-width="1"  opacity="1"></path><path fill="none" d="M 63 306.5 L 590 306.5" stroke="#C0C0C0" stroke-width="1"  opacity="1"></path><path fill="none" d="M 63 372.5 L 590 372.5" stroke="#C0C0C0" stroke-width="1"  opacity="1"></path></g><g class="highcharts-axis" ><path fill="none" d="M 273.5 372 L 273.5 377" stroke="#C0D0E0" stroke-width="1" opacity="1"></path><path fill="none" d="M 378.5 372 L 378.5 377" stroke="#C0D0E0" stroke-width="1" opacity="1"></path><path fill="none" d="M 484.5 372 L 484.5 377" stroke="#C0D0E0" stroke-width="1" opacity="1"></path><path fill="none" d="M 590.5 372 L 590.5 377" stroke="#C0D0E0" stroke-width="1" opacity="1"></path><path fill="none" d="M 167.5 372 L 167.5 377" stroke="#C0D0E0" stroke-width="1" opacity="1"></path><path fill="none" d="M 62.5 372 L 62.5 377" stroke="#C0D0E0" stroke-width="1"></path><path fill="none" d="M 63 372.5 L 590 372.5" stroke="#C0D0E0" stroke-width="1"  visibility="visible"></path></g><g class="highcharts-axis" ><text x="24" y="206"  text-anchor="middle" transform="translate(0,0) rotate(270 24 206)" class=" highcharts-yaxis-title" style="color:#4d759e;font-weight:bold;fill:#4d759e;" visibility="visible"><tspan x="24">Total fruit consumption</tspan></text></g><g class="highcharts-series-group" ><g class="highcharts-series highcharts-tracker" visibility="visible"  transform="translate(63,40) scale(1 1)" style="" clip-path="url(#highcharts-5)"><rect x="26.5" y="66.5" width="51" height="133" stroke="#FFFFFF" stroke-width="1" fill="#2f7ed8" rx="0" ry="0"></rect><rect x="132.5" y="93.5" width="51" height="80" stroke="#FFFFFF" stroke-width="1" fill="#2f7ed8" rx="0" ry="0"></rect><rect x="237.5" y="40.5" width="51" height="106" stroke="#FFFFFF" stroke-width="1" fill="#2f7ed8" rx="0" ry="0"></rect><rect x="343.5" y="40.5" width="51" height="186" stroke="#FFFFFF" stroke-width="1" fill="#2f7ed8" rx="0" ry="0"></rect><rect x="448.5" y="120.5" width="51" height="53" stroke="#FFFFFF" stroke-width="1" fill="#2f7ed8" rx="0" ry="0"></rect></g><g class="highcharts-markers" visibility="visible"  transform="translate(63,40) scale(1 1)" clip-path="none"></g><g class="highcharts-series highcharts-tracker" visibility="visible"  transform="translate(63,40) scale(1 1)" style="" clip-path="url(#highcharts-5)"><rect x="26.5" y="199.5" width="51" height="53" stroke="#FFFFFF" stroke-width="1" fill="#0d233a" rx="0" ry="0"></rect><rect x="132.5" y="173.5" width="51" height="53" stroke="#FFFFFF" stroke-width="1" fill="#0d233a" rx="0" ry="0"></rect><rect x="237.5" y="146.5" width="51" height="80" stroke="#FFFFFF" stroke-width="1" fill="#0d233a" rx="0" ry="0"></rect><rect x="343.5" y="226.5" width="51" height="53" stroke="#FFFFFF" stroke-width="1" fill="#0d233a" rx="0" ry="0"></rect><rect x="448.5" y="173.5" width="51" height="26" stroke="#FFFFFF" stroke-width="1" fill="#0d233a" rx="0" ry="0"></rect></g><g class="highcharts-markers" visibility="visible"  transform="translate(63,40) scale(1 1)" clip-path="none"></g><g class="highcharts-series highcharts-tracker" visibility="visible"  transform="translate(63,40) scale(1 1)" style="" clip-path="url(#highcharts-5)"><rect x="26.5" y="252.5" width="51" height="80" stroke="#FFFFFF" stroke-width="1" fill="#8bbc21" rx="0" ry="0"></rect><rect x="132.5" y="226.5" width="51" height="106" stroke="#FFFFFF" stroke-width="1" fill="#8bbc21" rx="0" ry="0"></rect><rect x="237.5" y="226.5" width="51" height="106" stroke="#FFFFFF" stroke-width="1" fill="#8bbc21" rx="0" ry="0"></rect><rect x="343.5" y="279.5" width="51" height="53" stroke="#FFFFFF" stroke-width="1" fill="#8bbc21" rx="0" ry="0"></rect><rect x="448.5" y="199.5" width="51" height="133" stroke="#FFFFFF" stroke-width="1" fill="#8bbc21" rx="0" ry="0"></rect></g><g class="highcharts-markers" visibility="visible"  transform="translate(63,40) scale(1 1)" clip-path="none"></g></g><text x="300" y="25" text-anchor="middle" class="highcharts-title"  style="color:#274b6d;font-size:16px;fill:#274b6d;width:536px;"><tspan x="300">Stacked column chart</tspan></text><g class="highcharts-stack-labels" visibility="visible"  transform="translate(63,40)"><text x="53" y="60" style="color:gray;cursor:default;font-size:11px;font-weight:bold;fill:gray;" text-anchor="middle" visibility="inherit" transform="translate(0,0)"><tspan x="53">10</tspan></text><text x="158" y="87" style="color:gray;cursor:default;font-size:11px;font-weight:bold;fill:gray;" text-anchor="middle" visibility="inherit" transform="translate(0,0)"><tspan x="158">9</tspan></text><text x="264" y="34" style="color:gray;cursor:default;font-size:11px;font-weight:bold;fill:gray;" text-anchor="middle" visibility="inherit" transform="translate(0,0)"><tspan x="264">11</tspan></text><text x="369" y="34" style="color:gray;cursor:default;font-size:11px;font-weight:bold;fill:gray;" text-anchor="middle" visibility="inherit" transform="translate(0,0)"><tspan x="369">11</tspan></text><text x="475" y="114" style="color:gray;cursor:default;font-size:11px;font-weight:bold;fill:gray;" text-anchor="middle" visibility="inherit" transform="translate(0,0)"><tspan x="475">8</tspan></text></g><g class="highcharts-data-labels highcharts-tracker" visibility="visible"  transform="translate(63,40) scale(1 1)" style=""><g  style="cursor:default;" transform="translate(46,124)"><text x="3" y="15"  style="font-size:11px;color:white;text-shadow:0 0 3px black, 0 0 3px black;fill:white;"><tspan x="3">5</tspan></text></g><g  style="cursor:default;" transform="translate(152,124)"><text x="3" y="15"  style="font-size:11px;color:white;text-shadow:0 0 3px black, 0 0 3px black;fill:white;"><tspan x="3">3</tspan></text></g><g  style="cursor:default;" transform="translate(257,84)"><text x="3" y="15"  style="font-size:11px;color:white;text-shadow:0 0 3px black, 0 0 3px black;fill:white;"><tspan x="3">4</tspan></text></g><g  style="cursor:default;" transform="translate(363,124)"><text x="3" y="15"  style="font-size:11px;color:white;text-shadow:0 0 3px black, 0 0 3px black;fill:white;"><tspan x="3">7</tspan></text></g><g  style="cursor:default;" transform="translate(468,138)"><text x="3" y="15"  style="font-size:11px;color:white;text-shadow:0 0 3px black, 0 0 3px black;fill:white;"><tspan x="3">2</tspan></text></g></g><g class="highcharts-data-labels highcharts-tracker" visibility="visible"  transform="translate(63,40) scale(1 1)" style=""><g  style="cursor:default;" transform="translate(46,217)"><text x="3" y="15"  style="font-size:11px;color:white;text-shadow:0 0 3px black, 0 0 3px black;fill:white;"><tspan x="3">2</tspan></text></g><g  style="cursor:default;" transform="translate(152,191)"><text x="3" y="15"  style="font-size:11px;color:white;text-shadow:0 0 3px black, 0 0 3px black;fill:white;"><tspan x="3">2</tspan></text></g><g  style="cursor:default;" transform="translate(257,177)"><text x="3" y="15"  style="font-size:11px;color:white;text-shadow:0 0 3px black, 0 0 3px black;fill:white;"><tspan x="3">3</tspan></text></g><g  style="cursor:default;" transform="translate(363,244)"><text x="3" y="15"  style="font-size:11px;color:white;text-shadow:0 0 3px black, 0 0 3px black;fill:white;"><tspan x="3">2</tspan></text></g><g  style="cursor:default;" transform="translate(468,177)"><text x="3" y="15"  style="font-size:11px;color:white;text-shadow:0 0 3px black, 0 0 3px black;fill:white;"><tspan x="3">1</tspan></text></g></g><g class="highcharts-data-labels highcharts-tracker" visibility="visible"  transform="translate(63,40) scale(1 1)" style=""><g  style="cursor:default;" transform="translate(46,283)"><text x="3" y="15"  style="font-size:11px;color:white;text-shadow:0 0 3px black, 0 0 3px black;fill:white;"><tspan x="3">3</tspan></text></g><g  style="cursor:default;" transform="translate(152,270)"><text x="3" y="15"  style="font-size:11px;color:white;text-shadow:0 0 3px black, 0 0 3px black;fill:white;"><tspan x="3">4</tspan></text></g><g  style="cursor:default;" transform="translate(257,270)"><text x="3" y="15"  style="font-size:11px;color:white;text-shadow:0 0 3px black, 0 0 3px black;fill:white;"><tspan x="3">4</tspan></text></g><g  style="cursor:default;" transform="translate(363,297)"><text x="3" y="15"  style="font-size:11px;color:white;text-shadow:0 0 3px black, 0 0 3px black;fill:white;"><tspan x="3">2</tspan></text></g><g  style="cursor:default;" transform="translate(468,257)"><text x="3" y="15"  style="font-size:11px;color:white;text-shadow:0 0 3px black, 0 0 3px black;fill:white;"><tspan x="3">5</tspan></text></g></g><g class="highcharts-legend"  transform="translate(351,30)"><rect x="0.5" y="0.5" width="168" height="24" rx="5" ry="5" stroke="#CCC" stroke-width="1" fill="white" visibility="visible"></rect><g ><g><g class="highcharts-legend-item"  transform="translate(8,3)"><text x="21" y="15" style="color:#274b6d;font-size:12px;cursor:pointer;fill:#274b6d;" text-anchor="start" ><tspan x="21">John</tspan></text><rect x="0" y="4" width="16" height="12" rx="2" ry="2"  fill="#2f7ed8"></rect></g><g class="highcharts-legend-item"  transform="translate(64,3)"><text x="21" y="15" style="color:#274b6d;font-size:12px;cursor:pointer;fill:#274b6d;" text-anchor="start" ><tspan x="21">Jane</tspan></text><rect x="0" y="4" width="16" height="12" rx="2" ry="2"  fill="#0d233a"></rect></g><g class="highcharts-legend-item"  transform="translate(120,3)"><text x="21" y="15" style="color:#274b6d;font-size:12px;cursor:pointer;fill:#274b6d;" text-anchor="start" ><tspan x="21">Joe</tspan></text><rect x="0" y="4" width="16" height="12" rx="2" ry="2"  fill="#8bbc21"></rect></g></g></g></g><g class="highcharts-axis-labels highcharts-xaxis-labels" ><text x="115.7" y="386" text-anchor="middle" style="width:87px;color:#666;cursor:default;font-size:11px;fill:#666;" opacity="1"><tspan x="115.7">Apples</tspan></text><text x="221.10000000000002" y="386" text-anchor="middle" style="width:87px;color:#666;cursor:default;font-size:11px;fill:#666;" opacity="1"><tspan x="221.10000000000002">Oranges</tspan></text><text x="326.5" y="386" text-anchor="middle" style="width:87px;color:#666;cursor:default;font-size:11px;fill:#666;" opacity="1"><tspan x="326.5">Pears</tspan></text><text x="431.90000000000003" y="386" text-anchor="middle" style="width:87px;color:#666;cursor:default;font-size:11px;fill:#666;" opacity="1"><tspan x="431.90000000000003">Grapes</tspan></text><text x="537.3" y="386" text-anchor="middle" style="width:87px;color:#666;cursor:default;font-size:11px;fill:#666;" opacity="1"><tspan x="537.3">Bananas</tspan></text></g><g class="highcharts-axis-labels highcharts-yaxis-labels" ><text x="55" y="377.5" text-anchor="end" style="width:178px;color:#666;cursor:default;font-size:11px;fill:#666;" opacity="1"><tspan x="55">0</tspan></text><text x="55" y="111.90000000000003" text-anchor="end" style="width:178px;color:#666;cursor:default;font-size:11px;fill:#666;" opacity="1"><tspan x="55">10</tspan></text><text x="55" y="311.1" text-anchor="end" style="width:178px;color:#666;cursor:default;font-size:11px;fill:#666;" opacity="1"><tspan x="55">2.5</tspan></text><text x="55" y="244.70000000000005" text-anchor="end" style="width:178px;color:#666;cursor:default;font-size:11px;fill:#666;" opacity="1"><tspan x="55">5</tspan></text><text x="55" y="178.3" text-anchor="end" style="width:178px;color:#666;cursor:default;font-size:11px;fill:#666;" opacity="1"><tspan x="55">7.5</tspan></text><text x="55" y="45.5" text-anchor="end" style="width:178px;color:#666;cursor:default;font-size:11px;fill:#666;" opacity="1"><tspan x="55">12.5</tspan></text></g><g class="highcharts-tooltip"  style="cursor:default;padding:0;white-space:nowrap;" transform="translate(0,-9999)"><rect x="0.5" y="0.5" width="16" height="16" fill="none" fill-opacity="0.85" rx="3" ry="3"  stroke="black" stroke-opacity="0.049999999999999996" stroke-width="5" transform="translate(1, 1)"></rect><rect x="0.5" y="0.5" width="16" height="16" fill="none" fill-opacity="0.85" rx="3" ry="3"  stroke="black" stroke-opacity="0.09999999999999999" stroke-width="3" transform="translate(1, 1)"></rect><rect x="0.5" y="0.5" width="16" height="16" fill="none" fill-opacity="0.85" rx="3" ry="3"  stroke="black" stroke-opacity="0.15" stroke-width="1" transform="translate(1, 1)"></rect><rect x="0.5" y="0.5" width="16" height="16" fill="rgb(255,255,255)" fill-opacity="0.85" rx="3" ry="3"></rect><text x="8" y="21"  style="font-size:12px;color:#333333;fill:#333333;"></text></g><text x="590" y="395" text-anchor="end"  style="cursor:pointer;color:#909090;font-size:9px;fill:#909090;"><tspan x="590">Highcharts.com</tspan></text></svg>