<?xml version="1.0" standalone="no"?><!DOCTYPE svg PUBLIC "-//W3C//DTD SVG 1.1//EN" "http://www.w3.org/Graphics/SVG/1.1/DTD/svg11.dtd"><svg xmlns:xlink="http://www.w3.org/1999/xlink" version="1.1" style="font-family:'lucida grande', 'lucida sans unicode', verdana, arial, helvetica, sans-serif;font-size:12px;" xmlns="http://www.w3.org/2000/svg" width="600" height="400"><desc>Created with Highcharts 3.0.10</desc><defs><clipPath id="highcharts-7"><rect x="0" y="0" width="536" height="283"></rect></clipPath></defs><rect x="0" y="0" width="600" height="400" fill="#FFFFFF" class=" highcharts-background"></rect><g class="highcharts-grid" ></g><g class="highcharts-grid" ><path fill="none" d="M 54 53.5 L 590 53.5" stroke="#C0C0C0" stroke-width="1"  opacity="1"></path><path fill="none" d="M 54 101.5 L 590 101.5" stroke="#C0C0C0" stroke-width="1"  opacity="1"></path><path fill="none" d="M 54 148.5 L 590 148.5" stroke="#C0C0C0" stroke-width="1"  opacity="1"></path><path fill="none" d="M 54 196.5 L 590 196.5" stroke="#C0C0C0" stroke-width="1"  opacity="1"></path><path fill="none" d="M 54 243.5 L 590 243.5" stroke="#C0C0C0" stroke-width="1"  opacity="1"></path><path fill="none" d="M 54 290.5 L 590 290.5" stroke="#C0C0C0" stroke-width="1"  opacity="1"></path><path fill="none" d="M 54 337.5 L 590 337.5" stroke="#C0C0C0" stroke-width="1"  opacity="1"></path></g><g class="highcharts-axis" ><path fill="none" d="M 142.5 337 L 142.5 342" stroke="#C0D0E0" stroke-width="1" opacity="1"></path><path fill="none" d="M 187.5 337 L 187.5 342" stroke="#C0D0E0" stroke-width="1" opacity="1"></path><path fill="none" d="M 232.5 337 L 232.5 342" stroke="#C0D0E0" stroke-width="1" opacity="1"></path><path fill="none" d="M 276.5 337 L 276.5 342" stroke="#C0D0E0" stroke-width="1" opacity="1"></path><path fill="none" d="M 321.5 337 L 321.5 342" stroke="#C0D0E0" stroke-width="1" opacity="1"></path><path fill="none" d="M 366.5 337 L 366.5 342" stroke="#C0D0E0" stroke-width="1" opacity="1"></path><path fill="none" d="M 410.5 337 L 410.5 342" stroke="#C0D0E0" stroke-width="1" opacity="1"></path><path fill="none" d="M 455.5 337 L 455.5 342" stroke="#C0D0E0" stroke-width="1" opacity="1"></path><path fill="none" d="M 500.5 337 L 500.5 342" stroke="#C0D0E0" stroke-width="1" opacity="1"></path><path fill="none" d="M 544.5 337 L 544.5 342" stroke="#C0D0E0" stroke-width="1" opacity="1"></path><path fill="none" d="M 590.5 337 L 590.5 342" stroke="#C0D0E0" stroke-width="1" opacity="1"></path><path fill="none" d="M 98.5 337 L 98.5 342" stroke="#C0D0E0" stroke-width="1" opacity="1"></path><path fill="none" d="M 53.5 337 L 53.5 342" stroke="#C0D0E0" stroke-width="1"></path><path fill="none" d="M 54 337.5 L 590 337.5" stroke="#C0D0E0" stroke-width="1"  visibility="visible"></path></g><g class="highcharts-axis" ><text x="24" y="195.5"  text-anchor="middle" transform="translate(0,0) rotate(270 24 195.5)" class=" highcharts-yaxis-title" style="color:#4d759e;font-weight:bold;fill:#4d759e;" visibility="visible"><tspan x="24">Temperature (°C)</tspan></text></g><g class="highcharts-series-group" ><g class="highcharts-series" visibility="visible"  transform="translate(54,54) scale(1 1)" clip-path="url(#highcharts-7)"><path fill="none" d="M 22.333333333333332 216.96666666666667 L 67 217.91 L 111.66666666666666 193.38333333333333 L 156.33333333333334 146.21666666666667 L 201 109.42666666666668 L 245.66666666666666 80.18333333333334 L 290.3333333333333 45.28 L 334.99999999999994 33.01666666666665 L 379.66666666666663 63.20333333333332 L 424.3333333333333 110.36999999999998 L 468.99999999999994 151.87666666666667 L 513.6666666666666 192.44" stroke="#2f7ed8" stroke-width="2"  stroke-linejoin="round" stroke-linecap="round"></path></g><g class="highcharts-markers" visibility="visible"  transform="translate(54,54) scale(1 1)" clip-path="none"><path fill="#2f7ed8" d="M 513 188.44 C 518.328 188.44 518.328 196.44 513 196.44 C 507.672 196.44 507.672 188.44 513 188.44 Z"></path><path fill="#2f7ed8" d="M 468 147.87666666666667 C 473.328 147.87666666666667 473.328 155.87666666666667 468 155.87666666666667 C 462.672 155.87666666666667 462.672 147.87666666666667 468 147.87666666666667 Z"></path><path fill="#2f7ed8" d="M 424 106.36999999999998 C 429.328 106.36999999999998 429.328 114.36999999999998 424 114.36999999999998 C 418.672 114.36999999999998 418.672 106.36999999999998 424 106.36999999999998 Z"></path><path fill="#2f7ed8" d="M 379 59.20333333333332 C 384.328 59.20333333333332 384.328 67.20333333333332 379 67.20333333333332 C 373.672 67.20333333333332 373.672 59.20333333333332 379 59.20333333333332 Z"></path><path fill="#2f7ed8" d="M 334 29.01666666666665 C 339.328 29.01666666666665 339.328 37.01666666666665 334 37.01666666666665 C 328.672 37.01666666666665 328.672 29.01666666666665 334 29.01666666666665 Z"></path><path fill="#2f7ed8" d="M 290 41.28 C 295.328 41.28 295.328 49.28 290 49.28 C 284.672 49.28 284.672 41.28 290 41.28 Z"></path><path fill="#2f7ed8" d="M 245 76.18333333333334 C 250.328 76.18333333333334 250.328 84.18333333333334 245 84.18333333333334 C 239.672 84.18333333333334 239.672 76.18333333333334 245 76.18333333333334 Z"></path><path fill="#2f7ed8" d="M 201 105.42666666666668 C 206.328 105.42666666666668 206.328 113.42666666666668 201 113.42666666666668 C 195.672 113.42666666666668 195.672 105.42666666666668 201 105.42666666666668 Z"></path><path fill="#2f7ed8" d="M 156 142.21666666666667 C 161.328 142.21666666666667 161.328 150.21666666666667 156 150.21666666666667 C 150.672 150.21666666666667 150.672 142.21666666666667 156 142.21666666666667 Z"></path><path fill="#2f7ed8" d="M 111 189.38333333333333 C 116.328 189.38333333333333 116.328 197.38333333333333 111 197.38333333333333 C 105.672 197.38333333333333 105.672 189.38333333333333 111 189.38333333333333 Z"></path><path fill="#2f7ed8" d="M 67 213.91 C 72.328 213.91 72.328 221.91 67 221.91 C 61.672 221.91 61.672 213.91 67 213.91 Z"></path><path fill="#2f7ed8" d="M 22 212.96666666666667 C 27.328 212.96666666666667 27.328 220.96666666666667 22 220.96666666666667 C 16.672 220.96666666666667 16.672 212.96666666666667 22 212.96666666666667 Z"></path></g><g class="highcharts-series" visibility="visible"  transform="translate(54,54) scale(1 1)" clip-path="url(#highcharts-7)"><path fill="none" d="M 22.333333333333332 246.21 L 67 243.38 L 111.66666666666666 229.23 L 156.33333333333334 202.81666666666666 L 201 170.74333333333334 L 245.66666666666666 139.61333333333334 L 290.3333333333333 122.63333333333333 L 334.99999999999994 126.40666666666664 L 379.66666666666663 149.04666666666668 L 424.3333333333333 185.83666666666664 L 468.99999999999994 220.74 L 513.6666666666666 237.72" stroke="#0d233a" stroke-width="2"  stroke-linejoin="round" stroke-linecap="round"></path></g><g class="highcharts-markers" visibility="visible"  transform="translate(54,54) scale(1 1)" clip-path="none"><path fill="#0d233a" d="M 513 233.72 L 517 237.72 513 241.72 509 237.72 Z"></path><path fill="#0d233a" d="M 468 216.74 L 472 220.74 468 224.74 464 220.74 Z"></path><path fill="#0d233a" d="M 424 181.83666666666664 L 428 185.83666666666664 424 189.83666666666664 420 185.83666666666664 Z"></path><path fill="#0d233a" d="M 379 145.04666666666668 L 383 149.04666666666668 379 153.04666666666668 375 149.04666666666668 Z"></path><path fill="#0d233a" d="M 334 122.40666666666664 L 338 126.40666666666664 334 130.40666666666664 330 126.40666666666664 Z"></path><path fill="#0d233a" d="M 290 118.63333333333333 L 294 122.63333333333333 290 126.63333333333333 286 122.63333333333333 Z"></path><path fill="#0d233a" d="M 245 135.61333333333334 L 249 139.61333333333334 245 143.61333333333334 241 139.61333333333334 Z"></path><path fill="#0d233a" d="M 201 166.74333333333334 L 205 170.74333333333334 201 174.74333333333334 197 170.74333333333334 Z"></path><path fill="#0d233a" d="M 156 198.81666666666666 L 160 202.81666666666666 156 206.81666666666666 152 202.81666666666666 Z"></path><path fill="#0d233a" d="M 111 225.23 L 115 229.23 111 233.23 107 229.23 Z"></path><path fill="#0d233a" d="M 67 239.38 L 71 243.38 67 247.38 63 243.38 Z"></path><path fill="#0d233a" d="M 22 242.21 L 26 246.21 22 250.21 18 246.21 Z"></path></g></g><text x="300" y="25" text-anchor="middle" class="highcharts-title"  style="color:#274b6d;font-size:16px;fill:#274b6d;width:536px;"><tspan x="300">Monthly Average Temperature</tspan></text><text x="300" y="40" text-anchor="middle" class="highcharts-subtitle"  style="color:#4d759e;fill:#4d759e;width:536px;"><tspan x="300">Source: WorldClimate.com</tspan></text><g class="highcharts-data-labels" visibility="visible"  transform="translate(54,54) scale(1 1)"><g  style="cursor:default;" transform="translate(16,198)"><text x="3" y="15"  style="font-size:11px;color:#666;text-shadow:0 0 3px white, 0 0 3px white;fill:#666;"><tspan x="3">7</tspan></text></g><g  style="cursor:default;" transform="translate(57,199)"><text x="3" y="15"  style="font-size:11px;color:#666;text-shadow:0 0 3px white, 0 0 3px white;fill:#666;"><tspan x="3">6.9</tspan></text></g><g  style="cursor:default;" transform="translate(101,174)"><text x="3" y="15"  style="font-size:11px;color:#666;text-shadow:0 0 3px white, 0 0 3px white;fill:#666;"><tspan x="3">9.5</tspan></text></g><g  style="cursor:default;" transform="translate(143,127)"><text x="3" y="15"  style="font-size:11px;color:#666;text-shadow:0 0 3px white, 0 0 3px white;fill:#666;"><tspan x="3">14.5</tspan></text></g><g  style="cursor:default;" transform="translate(188,90)"><text x="3" y="15"  style="font-size:11px;color:#666;text-shadow:0 0 3px white, 0 0 3px white;fill:#666;"><tspan x="3">18.4</tspan></text></g><g  style="cursor:default;" transform="translate(232,61)"><text x="3" y="15"  style="font-size:11px;color:#666;text-shadow:0 0 3px white, 0 0 3px white;fill:#666;"><tspan x="3">21.5</tspan></text></g><g  style="cursor:default;" transform="translate(277,26)"><text x="3" y="15"  style="font-size:11px;color:#666;text-shadow:0 0 3px white, 0 0 3px white;fill:#666;"><tspan x="3">25.2</tspan></text></g><g  style="cursor:default;" transform="translate(321,14)"><text x="3" y="15"  style="font-size:11px;color:#666;text-shadow:0 0 3px white, 0 0 3px white;fill:#666;"><tspan x="3">26.5</tspan></text></g><g  style="cursor:default;" transform="translate(366,44)"><text x="3" y="15"  style="font-size:11px;color:#666;text-shadow:0 0 3px white, 0 0 3px white;fill:#666;"><tspan x="3">23.3</tspan></text></g><g  style="cursor:default;" transform="translate(411,91)"><text x="3" y="15"  style="font-size:11px;color:#666;text-shadow:0 0 3px white, 0 0 3px white;fill:#666;"><tspan x="3">18.3</tspan></text></g><g  style="cursor:default;" transform="translate(455,133)"><text x="3" y="15"  style="font-size:11px;color:#666;text-shadow:0 0 3px white, 0 0 3px white;fill:#666;"><tspan x="3">13.9</tspan></text></g><g  style="cursor:default;" transform="translate(503,173)"><text x="3" y="15"  style="font-size:11px;color:#666;text-shadow:0 0 3px white, 0 0 3px white;fill:#666;"><tspan x="3">9.6</tspan></text></g></g><g class="highcharts-data-labels" visibility="visible"  transform="translate(54,54) scale(1 1)"><g  style="cursor:default;" transform="translate(12,227)"><text x="3" y="15"  style="font-size:11px;color:#666;text-shadow:0 0 3px white, 0 0 3px white;fill:#666;"><tspan x="3">3.9</tspan></text></g><g  style="cursor:default;" transform="translate(57,224)"><text x="3" y="15"  style="font-size:11px;color:#666;text-shadow:0 0 3px white, 0 0 3px white;fill:#666;"><tspan x="3">4.2</tspan></text></g><g  style="cursor:default;" transform="translate(101,210)"><text x="3" y="15"  style="font-size:11px;color:#666;text-shadow:0 0 3px white, 0 0 3px white;fill:#666;"><tspan x="3">5.7</tspan></text></g><g  style="cursor:default;" transform="translate(146,184)"><text x="3" y="15"  style="font-size:11px;color:#666;text-shadow:0 0 3px white, 0 0 3px white;fill:#666;"><tspan x="3">8.5</tspan></text></g><g  style="cursor:default;" transform="translate(188,152)"><text x="3" y="15"  style="font-size:11px;color:#666;text-shadow:0 0 3px white, 0 0 3px white;fill:#666;"><tspan x="3">11.9</tspan></text></g><g  style="cursor:default;" transform="translate(232,121)"><text x="3" y="15"  style="font-size:11px;color:#666;text-shadow:0 0 3px white, 0 0 3px white;fill:#666;"><tspan x="3">15.2</tspan></text></g><g  style="cursor:default;" transform="translate(281,104)"><text x="3" y="15"  style="font-size:11px;color:#666;text-shadow:0 0 3px white, 0 0 3px white;fill:#666;"><tspan x="3">17</tspan></text></g><g  style="cursor:default;" transform="translate(321,107)"><text x="3" y="15"  style="font-size:11px;color:#666;text-shadow:0 0 3px white, 0 0 3px white;fill:#666;"><tspan x="3">16.6</tspan></text></g><g  style="cursor:default;" transform="translate(366,130)"><text x="3" y="15"  style="font-size:11px;color:#666;text-shadow:0 0 3px white, 0 0 3px white;fill:#666;"><tspan x="3">14.2</tspan></text></g><g  style="cursor:default;" transform="translate(411,167)"><text x="3" y="15"  style="font-size:11px;color:#666;text-shadow:0 0 3px white, 0 0 3px white;fill:#666;"><tspan x="3">10.3</tspan></text></g><g  style="cursor:default;" transform="translate(458,202)"><text x="3" y="15"  style="font-size:11px;color:#666;text-shadow:0 0 3px white, 0 0 3px white;fill:#666;"><tspan x="3">6.6</tspan></text></g><g  style="cursor:default;" transform="translate(503,219)"><text x="3" y="15"  style="font-size:11px;color:#666;text-shadow:0 0 3px white, 0 0 3px white;fill:#666;"><tspan x="3">4.8</tspan></text></g></g><g class="highcharts-legend"  transform="translate(230,360)"><rect x="0.5" y="0.5" width="140" height="24" rx="5" ry="5" stroke="#909090" stroke-width="1" fill="none" visibility="visible"></rect><g ><g><g class="highcharts-legend-item"  transform="translate(8,3)"><path fill="none" d="M 0 11 L 16 11" stroke="#2f7ed8" stroke-width="2"></path><path fill="#2f7ed8" d="M 8 7 C 13.328 7 13.328 15 8 15 C 2.6719999999999997 15 2.6719999999999997 7 8 7 Z"></path><text x="21" y="15" style="color:#274b6d;font-size:12px;cursor:pointer;fill:#274b6d;" text-anchor="start" ><tspan x="21">Tokyo</tspan></text></g><g class="highcharts-legend-item"  transform="translate(70,3)"><path fill="none" d="M 0 11 L 16 11" stroke="#0d233a" stroke-width="2"></path><path fill="#0d233a" d="M 8 7 L 12 11 8 15 4 11 Z"></path><text x="21" y="15" style="color:#274b6d;font-size:12px;cursor:pointer;fill:#274b6d;" text-anchor="start" ><tspan x="21">London</tspan></text></g></g></g></g><g class="highcharts-axis-labels highcharts-xaxis-labels" ><text x="76.33333333333333" y="351" text-anchor="middle" style="width:25px;color:#666;cursor:default;font-size:11px;fill:#666;" opacity="1"><tspan x="76.33333333333333">Jan</tspan></text><text x="120.99999999999999" y="351" text-anchor="middle" style="width:25px;color:#666;cursor:default;font-size:11px;fill:#666;" opacity="1"><tspan x="120.99999999999999">Feb</tspan></text><text x="165.66666666666666" y="351" text-anchor="middle" style="width:25px;color:#666;cursor:default;font-size:11px;fill:#666;" opacity="1"><tspan x="165.66666666666666">Mar</tspan></text><text x="210.33333333333331" y="351" text-anchor="middle" style="width:25px;color:#666;cursor:default;font-size:11px;fill:#666;" opacity="1"><tspan x="210.33333333333331">Apr</tspan></text><text x="255.00000000000003" y="351" text-anchor="middle" style="width:25px;color:#666;cursor:default;font-size:11px;fill:#666;" opacity="1"><tspan x="255.00000000000003">May</tspan></text><text x="299.6666666666667" y="351" text-anchor="middle" style="width:25px;color:#666;cursor:default;font-size:11px;fill:#666;" opacity="1"><tspan x="299.6666666666667">Jun</tspan></text><text x="344.3333333333333" y="351" text-anchor="middle" style="width:25px;color:#666;cursor:default;font-size:11px;fill:#666;" opacity="1"><tspan x="344.3333333333333">Jul</tspan></text><text x="389" y="351" text-anchor="middle" style="width:25px;color:#666;cursor:default;font-size:11px;fill:#666;" opacity="1"><tspan x="389">Aug</tspan></text><text x="433.66666666666663" y="351" text-anchor="middle" style="width:25px;color:#666;cursor:default;font-size:11px;fill:#666;" opacity="1"><tspan x="433.66666666666663">Sep</tspan></text><text x="478.3333333333333" y="351" text-anchor="middle" style="width:25px;color:#666;cursor:default;font-size:11px;fill:#666;" opacity="1"><tspan x="478.3333333333333">Oct</tspan></text><text x="522.9999999999999" y="351" text-anchor="middle" style="width:25px;color:#666;cursor:default;font-size:11px;fill:#666;" opacity="1"><tspan x="522.9999999999999">Nov</tspan></text><text x="567.6666666666666" y="351" text-anchor="middle" style="width:25px;color:#666;cursor:default;font-size:11px;fill:#666;" opacity="1"><tspan x="567.6666666666666">Dec</tspan></text></g><g class="highcharts-axis-labels highcharts-yaxis-labels" ><text x="46" y="342.5" text-anchor="end" style="width:178px;color:#666;cursor:default;font-size:11px;fill:#666;" opacity="1"><tspan x="46">0</tspan></text><text x="46" y="295.3333333333333" text-anchor="end" style="width:178px;color:#666;cursor:default;font-size:11px;fill:#666;" opacity="1"><tspan x="46">5</tspan></text><text x="46" y="248.16666666666663" text-anchor="end" style="width:178px;color:#666;cursor:default;font-size:11px;fill:#666;" opacity="1"><tspan x="46">10</tspan></text><text x="46" y="201" text-anchor="end" style="width:178px;color:#666;cursor:default;font-size:11px;fill:#666;" opacity="1"><tspan x="46">15</tspan></text><text x="46" y="153.83333333333331" text-anchor="end" style="width:178px;color:#666;cursor:default;font-size:11px;fill:#666;" opacity="1"><tspan x="46">20</tspan></text><text x="46" y="106.66666666666666" text-anchor="end" style="width:178px;color:#666;cursor:default;font-size:11px;fill:#666;" opacity="1"><tspan x="46">25</tspan></text><text x="46" y="59.5" text-anchor="end" style="width:178px;color:#666;cursor:default;font-size:11px;fill:#666;" opacity="1"><tspan x="46">30</tspan></text></g><text x="590" y="395" text-anchor="end"  style="cursor:pointer;color:#909090;font-size:9px;fill:#909090;"><tspan x="590">Highcharts.com</tspan></text></svg>