<?xml version="1.0" standalone="no"?><!DOCTYPE svg PUBLIC "-//W3C//DTD SVG 1.1//EN" "http://www.w3.org/Graphics/SVG/1.1/DTD/svg11.dtd"><svg xmlns:xlink="http://www.w3.org/1999/xlink" version="1.1" style="font-family:'lucida grande', 'lucida sans unicode', verdana, arial, helvetica, sans-serif;font-size:12px;" xmlns="http://www.w3.org/2000/svg" width="600" height="400"><desc>Created with Highcharts 3.0.10</desc><defs><clipPath id="highcharts-5"><rect x="0" y="0" width="299" height="531"></rect></clipPath></defs><rect x="0" y="0" width="600" height="400" fill="#FFFFFF" class=" highcharts-background"></rect><g class="highcharts-grid" ></g><g class="highcharts-grid" ><path fill="none" d="M 117.5 54 L 117.5 353" stroke="#C0C0C0" stroke-width="1"  opacity="1"></path><path fill="none" d="M 176.5 54 L 176.5 353" stroke="#C0C0C0" stroke-width="1"  opacity="1"></path><path fill="none" d="M 235.5 54 L 235.5 353" stroke="#C0C0C0" stroke-width="1"  opacity="1"></path><path fill="none" d="M 294.5 54 L 294.5 353" stroke="#C0C0C0" stroke-width="1"  opacity="1"></path><path fill="none" d="M 353.5 54 L 353.5 353" stroke="#C0C0C0" stroke-width="1"  opacity="1"></path><path fill="none" d="M 412.5 54 L 412.5 353" stroke="#C0C0C0" stroke-width="1"  opacity="1"></path><path fill="none" d="M 471.5 54 L 471.5 353" stroke="#C0C0C0" stroke-width="1"  opacity="1"></path><path fill="none" d="M 530.5 54 L 530.5 353" stroke="#C0C0C0" stroke-width="1"  opacity="1"></path><path fill="none" d="M 590.5 54 L 590.5 353" stroke="#C0C0C0" stroke-width="1"  opacity="1"></path><path fill="none" d="M 58.5 54 L 58.5 353" stroke="#C0C0C0" stroke-width="1"  opacity="1"></path></g><g class="highcharts-axis" ><path fill="none" d="M 59 114.5 L 54 114.5" stroke="#C0D0E0" stroke-width="1" opacity="1"></path><path fill="none" d="M 59 174.5 L 54 174.5" stroke="#C0D0E0" stroke-width="1" opacity="1"></path><path fill="none" d="M 59 233.5 L 54 233.5" stroke="#C0D0E0" stroke-width="1" opacity="1"></path><path fill="none" d="M 59 293.5 L 54 293.5" stroke="#C0D0E0" stroke-width="1" opacity="1"></path><path fill="none" d="M 59 353.5 L 54 353.5" stroke="#C0D0E0" stroke-width="1" opacity="1"></path><path fill="none" d="M 59 53.5 L 54 53.5" stroke="#C0D0E0" stroke-width="1"></path><path fill="none" d="M 58.5 54 L 58.5 353" stroke="#C0D0E0" stroke-width="1"  visibility="visible"></path></g><g class="highcharts-axis" ><text x="590" y="383"  text-anchor="end" transform="translate(0,0)" class=" highcharts-yaxis-title" style="color:#4d759e;font-weight:bold;fill:#4d759e;" visibility="visible"><tspan x="590">Population (millions)</tspan></text></g><g class="highcharts-series-group" ><g class="highcharts-series highcharts-tracker" visibility="visible"  transform="translate(590,353) rotate(90) scale(-1,1) scale(1 1)" style="" width="531" height="299" clip-path="url(#highcharts-5)"><rect x="251.5" y="518.5" width="10" height="13" stroke="#FFFFFF" stroke-width="1" fill="#2f7ed8" rx="0" ry="0"></rect><rect x="192.5" y="527.5" width="10" height="4" stroke="#FFFFFF" stroke-width="1" fill="#2f7ed8" rx="0" ry="0"></rect><rect x="132.5" y="456.5" width="10" height="75" stroke="#FFFFFF" stroke-width="1" fill="#2f7ed8" rx="0" ry="0"></rect><rect x="72.5" y="507.5" width="10" height="24" stroke="#FFFFFF" stroke-width="1" fill="#2f7ed8" rx="0" ry="0"></rect><rect x="12.5" y="531.5" width="10" height="0" stroke="#FFFFFF" stroke-width="1" fill="#2f7ed8" rx="0" ry="0"></rect></g><g class="highcharts-markers" visibility="visible"  transform="translate(590,353) rotate(90) scale(-1,1) scale(1 1)" width="531" height="299" clip-path="none"></g><g class="highcharts-series highcharts-tracker" visibility="visible"  transform="translate(590,353) rotate(90) scale(-1,1) scale(1 1)" style="" width="531" height="299" clip-path="url(#highcharts-5)"><rect x="263.5" y="515.5" width="10" height="16" stroke="#FFFFFF" stroke-width="1" fill="#0d233a" rx="0" ry="0"></rect><rect x="204.5" y="513.5" width="10" height="18" stroke="#FFFFFF" stroke-width="1" fill="#0d233a" rx="0" ry="0"></rect><rect x="144.5" y="419.5" width="10" height="112" stroke="#FFFFFF" stroke-width="1" fill="#0d233a" rx="0" ry="0"></rect><rect x="84.5" y="483.5" width="10" height="48" stroke="#FFFFFF" stroke-width="1" fill="#0d233a" rx="0" ry="0"></rect><rect x="24.5" y="530.5" width="10" height="1" stroke="#FFFFFF" stroke-width="1" fill="#0d233a" rx="0" ry="0"></rect></g><g class="highcharts-markers" visibility="visible"  transform="translate(590,353) rotate(90) scale(-1,1) scale(1 1)" width="531" height="299" clip-path="none"></g><g class="highcharts-series highcharts-tracker" visibility="visible"  transform="translate(590,353) rotate(90) scale(-1,1) scale(1 1)" style="" width="531" height="299" clip-path="url(#highcharts-5)"><rect x="275.5" y="416.5" width="10" height="115" stroke="#FFFFFF" stroke-width="1" fill="#8bbc21" rx="0" ry="0"></rect><rect x="215.5" y="423.5" width="10" height="108" stroke="#FFFFFF" stroke-width="1" fill="#8bbc21" rx="0" ry="0"></rect><rect x="156.5" y="53.5" width="10" height="478" stroke="#FFFFFF" stroke-width="1" fill="#8bbc21" rx="0" ry="0"></rect><rect x="96.5" y="445.5" width="10" height="86" stroke="#FFFFFF" stroke-width="1" fill="#8bbc21" rx="0" ry="0"></rect><rect x="36.5" y="527.5" width="10" height="4" stroke="#FFFFFF" stroke-width="1" fill="#8bbc21" rx="0" ry="0"></rect></g><g class="highcharts-markers" visibility="visible"  transform="translate(590,353) rotate(90) scale(-1,1) scale(1 1)" width="531" height="299" clip-path="none"></g></g><text x="300" y="25" text-anchor="middle" class="highcharts-title"  style="color:#274b6d;font-size:16px;fill:#274b6d;width:536px;"><tspan x="300">Historic World Population by Region</tspan></text><text x="300" y="40" text-anchor="middle" class="highcharts-subtitle"  style="color:#4d759e;fill:#4d759e;width:536px;"><tspan x="300">Source: Wikipedia.org</tspan></text><g class="highcharts-data-labels highcharts-tracker" visibility="visible"  transform="translate(59,54) scale(1 1)" style=""><g  style="cursor:default;" transform="translate(13,33)"><text x="3" y="15"  style="font-size:11px;color:#666;fill:#666;"><tspan x="3">107</tspan></text></g><g  style="cursor:default;" transform="translate(4,92)"><text x="3" y="15"  style="font-size:11px;color:#666;fill:#666;"><tspan x="3">31</tspan></text></g><g  style="cursor:default;" transform="translate(75,152)"><text x="3" y="15"  style="font-size:11px;color:#666;fill:#666;"><tspan x="3">635</tspan></text></g><g  style="cursor:default;" transform="translate(24,212)"><text x="3" y="15"  style="font-size:11px;color:#666;fill:#666;"><tspan x="3">203</tspan></text></g><g  style="cursor:default;" transform="translate(0,272)"><text x="3" y="15"  style="font-size:11px;color:#666;fill:#666;"><tspan x="3">2</tspan></text></g></g><g class="highcharts-data-labels highcharts-tracker" visibility="visible"  transform="translate(59,54) scale(1 1)" style=""><g  style="cursor:default;" transform="translate(16,21)"><text x="3" y="15"  style="font-size:11px;color:#666;fill:#666;"><tspan x="3">133</tspan></text></g><g  style="cursor:default;" transform="translate(18,80)"><text x="3" y="15"  style="font-size:11px;color:#666;fill:#666;"><tspan x="3">156</tspan></text></g><g  style="cursor:default;" transform="translate(112,140)"><text x="3" y="15"  style="font-size:11px;color:#666;fill:#666;"><tspan x="3">947</tspan></text></g><g  style="cursor:default;" transform="translate(48,200)"><text x="3" y="15"  style="font-size:11px;color:#666;fill:#666;"><tspan x="3">408</tspan></text></g><g  style="cursor:default;" transform="translate(1,260)"><text x="3" y="15"  style="font-size:11px;color:#666;fill:#666;"><tspan x="3">6</tspan></text></g></g><g class="highcharts-data-labels highcharts-tracker" visibility="visible"  transform="translate(59,54) scale(1 1)" style=""><g  style="cursor:default;" transform="translate(115,9)"><text x="3" y="15"  style="font-size:11px;color:#666;fill:#666;"><tspan x="3">973</tspan></text></g><g  style="cursor:default;" transform="translate(108,69)"><text x="3" y="15"  style="font-size:11px;color:#666;fill:#666;"><tspan x="3">914</tspan></text></g><g  style="cursor:default;" transform="translate(478,128)"><text x="3" y="15"  style="font-size:11px;color:#666;fill:#666;"><tspan x="3">4,054</tspan></text></g><g  style="cursor:default;" transform="translate(86,188)"><text x="3" y="15"  style="font-size:11px;color:#666;fill:#666;"><tspan x="3">732</tspan></text></g><g  style="cursor:default;" transform="translate(4,248)"><text x="3" y="15"  style="font-size:11px;color:#666;fill:#666;"><tspan x="3">34</tspan></text></g></g><g class="highcharts-legend"  transform="translate(456,110)"><rect x="0.5" y="0.5" width="93" height="52" rx="5" ry="5" stroke="black" stroke-width="5" fill="none"  stroke-opacity="0.049999999999999996" transform="translate(1, 1)" visibility="visible"></rect><rect x="0.5" y="0.5" width="93" height="52" rx="5" ry="5" stroke="black" stroke-width="3" fill="none"  stroke-opacity="0.09999999999999999" transform="translate(1, 1)" visibility="visible"></rect><rect x="0.5" y="0.5" width="93" height="52" rx="5" ry="5" stroke="black" stroke-width="1" fill="none"  stroke-opacity="0.15" transform="translate(1, 1)" visibility="visible"></rect><rect x="0.5" y="0.5" width="93" height="52" rx="5" ry="5" stroke="#909090" stroke-width="1" fill="#FFFFFF" visibility="visible"></rect><g ><g><g class="highcharts-legend-item"  transform="translate(8,3)"><text x="21" y="15" style="color:#274b6d;font-size:12px;cursor:pointer;fill:#274b6d;" text-anchor="start" ><tspan x="21">Year 1800</tspan></text><rect x="0" y="4" width="16" height="12" rx="2" ry="2"  fill="#2f7ed8"></rect></g><g class="highcharts-legend-item"  transform="translate(8,17)"><text x="21" y="15" style="color:#274b6d;font-size:12px;cursor:pointer;fill:#274b6d;" text-anchor="start" ><tspan x="21">Year 1900</tspan></text><rect x="0" y="4" width="16" height="12" rx="2" ry="2"  fill="#0d233a"></rect></g><g class="highcharts-legend-item"  transform="translate(8,31)"><text x="21" y="15" style="color:#274b6d;font-size:12px;cursor:pointer;fill:#274b6d;" text-anchor="start" ><tspan x="21">Year 2008</tspan></text><rect x="0" y="4" width="16" height="12" rx="2" ry="2"  fill="#8bbc21"></rect></g></g></g></g><g class="highcharts-axis-labels highcharts-xaxis-labels" ><text x="51" y="89.39999999999998" text-anchor="end" style="width:178px;color:#666;cursor:default;font-size:11px;fill:#666;" opacity="1"><tspan x="51">Africa</tspan></text><text x="51" y="149.2" text-anchor="end" style="width:178px;color:#666;cursor:default;font-size:11px;fill:#666;" opacity="1"><tspan x="51">America</tspan></text><text x="51" y="208.99999999999997" text-anchor="end" style="width:178px;color:#666;cursor:default;font-size:11px;fill:#666;" opacity="1"><tspan x="51">Asia</tspan></text><text x="51" y="268.8" text-anchor="end" style="width:178px;color:#666;cursor:default;font-size:11px;fill:#666;" opacity="1"><tspan x="51">Europe</tspan></text><text x="51" y="328.59999999999997" text-anchor="end" style="width:178px;color:#666;cursor:default;font-size:11px;fill:#666;" opacity="1"><tspan x="51">Oceania</tspan></text></g><g class="highcharts-axis-labels highcharts-yaxis-labels" ><text x="62" y="367" text-anchor="middle" style="color:#666;cursor:default;font-size:11px;fill:#666;" opacity="1"><tspan x="62">0</tspan></text><text x="118" y="367" text-anchor="middle" style="color:#666;cursor:default;font-size:11px;fill:#666;" opacity="1"><tspan x="118">500</tspan></text><text x="177" y="367" text-anchor="middle" style="color:#666;cursor:default;font-size:11px;fill:#666;" opacity="1"><tspan x="177">1000</tspan></text><text x="236" y="367" text-anchor="middle" style="color:#666;cursor:default;font-size:11px;fill:#666;" opacity="1"><tspan x="236">1500</tspan></text><text x="295" y="367" text-anchor="middle" style="color:#666;cursor:default;font-size:11px;fill:#666;" opacity="1"><tspan x="295">2000</tspan></text><text x="354" y="367" text-anchor="middle" style="color:#666;cursor:default;font-size:11px;fill:#666;" opacity="1"><tspan x="354">2500</tspan></text><text x="413" y="367" text-anchor="middle" style="color:#666;cursor:default;font-size:11px;fill:#666;" opacity="1"><tspan x="413">3000</tspan></text><text x="472" y="367" text-anchor="middle" style="color:#666;cursor:default;font-size:11px;fill:#666;" opacity="1"><tspan x="472">3500</tspan></text><text x="531" y="367" text-anchor="middle" style="color:#666;cursor:default;font-size:11px;fill:#666;" opacity="1"><tspan x="531">4000</tspan></text><text x="578" y="367" text-anchor="middle" style="color:#666;cursor:default;font-size:11px;fill:#666;" opacity="1"><tspan x="578">4500</tspan></text></g><g class="highcharts-tooltip"  style="cursor:default;padding:0;white-space:nowrap;" transform="translate(0,-9999)"><rect x="0.5" y="0.5" width="16" height="16" fill="none" fill-opacity="0.85" rx="3" ry="3"  stroke="black" stroke-opacity="0.049999999999999996" stroke-width="5" transform="translate(1, 1)"></rect><rect x="0.5" y="0.5" width="16" height="16" fill="none" fill-opacity="0.85" rx="3" ry="3"  stroke="black" stroke-opacity="0.09999999999999999" stroke-width="3" transform="translate(1, 1)"></rect><rect x="0.5" y="0.5" width="16" height="16" fill="none" fill-opacity="0.85" rx="3" ry="3"  stroke="black" stroke-opacity="0.15" stroke-width="1" transform="translate(1, 1)"></rect><rect x="0.5" y="0.5" width="16" height="16" fill="rgb(255,255,255)" fill-opacity="0.85" rx="3" ry="3"></rect><text x="8" y="21"  style="font-size:12px;color:#333333;fill:#333333;"></text></g></svg>