<?xml version="1.0" standalone="no"?><!DOCTYPE svg PUBLIC "-//W3C//DTD SVG 1.1//EN" "http://www.w3.org/Graphics/SVG/1.1/DTD/svg11.dtd"><svg xmlns:xlink="http://www.w3.org/1999/xlink" version="1.1" style="font-family:'lucida grande', 'lucida sans unicode', verdana, arial, helvetica, sans-serif;font-size:12px;" xmlns="http://www.w3.org/2000/svg" width="600" height="400"><desc>Created with Highcharts 3.0.10</desc><defs><clipPath id="highcharts-15"><rect x="0" y="0" width="580" height="345"></rect></clipPath><radialGradient cx="290" cy="126.7" r="202.29999999999998" id="highcharts-16" gradientUnits="userSpaceOnUse"><stop offset="0" stop-color="#2f7ed8" stop-opacity="1"></stop><stop offset="1" stop-color="rgb(0,50,140)" stop-opacity="1"></stop></radialGradient><radialGradient cx="290" cy="126.7" r="202.29999999999998" id="highcharts-17" gradientUnits="userSpaceOnUse"><stop offset="0" stop-color="#0d233a" stop-opacity="1"></stop><stop offset="1" stop-color="rgb(0,0,0)" stop-opacity="1"></stop></radialGradient><radialGradient cx="290" cy="126.7" r="202.29999999999998" gradientUnits="userSpaceOnUse" id="highcharts-18"><stop offset="0" stop-color="#8bbc21" stop-opacity="1"></stop><stop offset="1" stop-color="rgb(63,112,0)" stop-opacity="1"></stop></radialGradient><radialGradient cx="290" cy="126.7" r="202.29999999999998" gradientUnits="userSpaceOnUse" id="highcharts-19"><stop offset="0" stop-color="#910000" stop-opacity="1"></stop><stop offset="1" stop-color="rgb(69,0,0)" stop-opacity="1"></stop></radialGradient><radialGradient cx="290" cy="126.7" r="202.29999999999998" gradientUnits="userSpaceOnUse" id="highcharts-20"><stop offset="0" stop-color="#1aadce" stop-opacity="1"></stop><stop offset="1" stop-color="rgb(0,97,130)" stop-opacity="1"></stop></radialGradient><radialGradient cx="290" cy="126.7" r="202.29999999999998" gradientUnits="userSpaceOnUse" id="highcharts-21"><stop offset="0" stop-color="#492970" stop-opacity="1"></stop><stop offset="1" stop-color="rgb(0,0,36)" stop-opacity="1"></stop></radialGradient></defs><rect x="0" y="0" width="600" height="400" fill="#FFFFFF" class=" highcharts-background"></rect><g class="highcharts-series-group" ><g class="highcharts-series highcharts-tracker" visibility="visible"  transform="translate(10,40) scale(1 1)" style="cursor:pointer;"><path fill="none" d="M 467.3516154338515 157.2021858504797 C 462.3516154338515 157.2021858504797 454.45010870909044 158.45366157080153 443.5855369625439 160.17444068624408 L 432.7209652159974 161.89521980168664" stroke="#000000" stroke-width="1" visibility="inherit"></path><path fill="none" d="M 197.11775131455968 335.25463630014974 C 202.11775131455968 335.25463630014974 206.14673692764583 328.3432489626071 211.6865921456392 318.8400913734859 L 217.22644736363256 309.3369337843647" stroke="#000000" stroke-width="1" visibility="inherit"></path><path fill="none" d="M 114.0152933589489 149.65060840023602 C 119.0152933589489 149.65060840023602 126.85413377802291 151.24828824435127 137.63253935424962 153.44509803000975 L 148.41094493047632 155.64190781566822" stroke="#000000" stroke-width="1" visibility="inherit"></path><path fill="none" d="M 172.50726823448522 51.099717766670615 C 177.50726823448522 51.099717766670615 182.66452814350592 57.215490018055334 189.75576051840943 65.62467686370934 L 196.84699289331294 74.03386370936335" stroke="#000000" stroke-width="1" visibility="inherit"></path><path fill="none" d="M 205.81666842068336 29 C 210.81666842068336 29 250.62291699554962 22.723316469706845 253.2244059628106 33.41126553176825 L 255.8258949300716 44.09921459382966" stroke="#000000" stroke-width="1" visibility="inherit"></path><path fill="none" d="M 281.16285387185883 10 C 286.16285387185883 10 286.3387688805978 18.040258961242152 286.58065201761536 29.037599210048977 L 286.82253515463293 40.0349394588558" stroke="#000000" stroke-width="1" visibility="inherit"></path><path fill="url(#highcharts-16)" d="M 289.97056922206605 40.50000299713045 A 144.5 144.5 0 0 1 334.74049648673997 322.39919204318494 L 290 185 A 0 0 0 0 0 290 185 Z" stroke="#FFFFFF" stroke-width="1" stroke-linejoin="round" transform="translate(0,0)" visibility="inherit"></path><path fill="url(#highcharts-17)" d="M 334.6030749473503 322.4438638326246 A 144.5 144.5 0 0 1 148.42628054548112 213.93323279229585 L 290 185 A 0 0 0 0 0 290 185 Z" stroke="#FFFFFF" stroke-width="1" stroke-linejoin="round" transform="translate(0,0)" visibility="inherit"></path><path fill="url(#highcharts-18)" d="M 148.39741810436487 213.79164462982177 A 144.5 144.5 0 0 1 170.93576644282612 103.12229676253277 L 290 185 A 0 0 0 0 0 290 185 Z" stroke="#FFFFFF" stroke-width="1" stroke-linejoin="round" transform="translate(-10,-2)" visibility="inherit"></path><path fill="url(#highcharts-19)" d="M 171.0177036645291 103.00327348766785 A 144.5 144.5 0 0 1 229.1862780377774 53.92009604404845 L 290 185 A 0 0 0 0 0 290 185 Z" stroke="#FFFFFF" stroke-width="1" stroke-linejoin="round" transform="translate(0,0)" visibility="inherit"></path><path fill="url(#highcharts-20)" d="M 229.31738832674523 53.859347872168314 A 144.5 144.5 0 0 1 283.4435440998116 40.648820974579905 L 290 185 A 0 0 0 0 0 290 185 Z" stroke="#FFFFFF" stroke-width="1" stroke-linejoin="round" transform="translate(0,0)" visibility="inherit"></path><path fill="url(#highcharts-21)" d="M 283.5878985330062 40.642336695355965 A 144.5 144.5 0 0 1 289.79929239894864 40.500139389482854 L 290 185 A 0 0 0 0 0 290 185 Z" stroke="#FFFFFF" stroke-width="1" stroke-linejoin="round" transform="translate(0,0)" visibility="inherit"></path></g><g class="highcharts-markers" visibility="visible"  transform="translate(10,40) scale(1 1)"></g></g><text x="300" y="25" text-anchor="middle" class="highcharts-title"  style="color:#274b6d;font-size:16px;fill:#274b6d;width:536px;"><tspan x="300">Browser market shares at a specific website, 2010</tspan></text><g class="highcharts-data-labels highcharts-tracker" visibility="visible"  transform="translate(10,40) scale(1 1)" style="cursor:pointer;"><g  style="cursor:pointer;" transform="translate(472,147)" visibility="inherit"><text x="3" y="15"  style="font-size:11px;color:#000000;fill:#000000;"><tspan style="font-weight:bold" x="3">Firefox</tspan><tspan dx="0">: 45 %</tspan></text></g><g  style="cursor:pointer;" transform="translate(139,325)" visibility="inherit"><text x="3" y="15"  style="font-size:11px;color:#000000;fill:#000000;"><tspan style="font-weight:bold" x="3">IE</tspan><tspan dx="0">: 26.8 %</tspan></text></g><g  style="cursor:pointer;" transform="translate(24,140)" visibility="inherit"><text x="3" y="15"  style="font-size:11px;color:#000000;fill:#000000;"><tspan style="font-weight:bold" x="3">Chrome</tspan><tspan dx="0">: 12.8 %</tspan></text></g><g  style="cursor:pointer;" transform="translate(101,41)" visibility="inherit"><text x="3" y="15"  style="font-size:11px;color:#000000;fill:#000000;"><tspan style="font-weight:bold" x="3">Safari</tspan><tspan dx="0">: 8.5 %</tspan></text></g><g  style="cursor:pointer;" transform="translate(132,19)" visibility="inherit"><text x="3" y="15"  style="font-size:11px;color:#000000;fill:#000000;"><tspan style="font-weight:bold" x="3">Opera</tspan><tspan dx="0">: 6.2 %</tspan></text></g><g  style="cursor:pointer;" transform="translate(203,0)" visibility="inherit"><text x="3" y="15"  style="font-size:11px;color:#000000;fill:#000000;"><tspan style="font-weight:bold" x="3">Others</tspan><tspan dx="0">: 0.7 %</tspan></text></g></g><g class="highcharts-legend" ><rect x="0.5" y="0.5" width="7" height="7" rx="5" ry="5" stroke="#909090" stroke-width="1" fill="none" visibility="hidden"></rect><g ><g></g></g></g><g class="highcharts-tooltip"  style="cursor:default;padding:0;white-space:nowrap;" transform="translate(0,-9999)"><rect x="0.5" y="0.5" width="16" height="16" fill="none" fill-opacity="0.85" rx="3" ry="3"  stroke="black" stroke-opacity="0.049999999999999996" stroke-width="5" transform="translate(1, 1)"></rect><rect x="0.5" y="0.5" width="16" height="16" fill="none" fill-opacity="0.85" rx="3" ry="3"  stroke="black" stroke-opacity="0.09999999999999999" stroke-width="3" transform="translate(1, 1)"></rect><rect x="0.5" y="0.5" width="16" height="16" fill="none" fill-opacity="0.85" rx="3" ry="3"  stroke="black" stroke-opacity="0.15" stroke-width="1" transform="translate(1, 1)"></rect><rect x="0.5" y="0.5" width="16" height="16" fill="rgb(255,255,255)" fill-opacity="0.85" rx="3" ry="3"></rect><text x="8" y="21"  style="font-size:12px;color:#333333;fill:#333333;"></text></g><text x="590" y="395" text-anchor="end"  style="cursor:pointer;color:#909090;font-size:9px;fill:#909090;"><tspan x="590">Highcharts.com</tspan></text></svg>