<?xml version="1.0" standalone="no"?><!DOCTYPE svg PUBLIC "-//W3C//DTD SVG 1.1//EN" "http://www.w3.org/Graphics/SVG/1.1/DTD/svg11.dtd"><svg xmlns:xlink="http://www.w3.org/1999/xlink" version="1.1" style="font-family:'lucida grande', 'lucida sans unicode', verdana, arial, helvetica, sans-serif;font-size:12px;" xmlns="http://www.w3.org/2000/svg" width="600" height="400"><desc>Created with Highcharts 3.0.10</desc><defs><clipPath id="highcharts-5"><rect x="0" y="0" width="580" height="345"></rect></clipPath></defs><rect x="0" y="0" width="600" height="400" fill="#FFFFFF" class=" highcharts-background"></rect><g class="highcharts-series-group" ><g class="highcharts-series highcharts-tracker" visibility="visible"  transform="translate(10,40) scale(1 1)" style=""><path fill="#2f7ed8" d="M 289.97932716982496 71.5000021052508 A 101.5 101.5 0 1 1 251.20409270297608 266.7930038808904 L 290 173 A 0 0 0 1 0 290 173 Z" stroke="#FFFFFF" stroke-width="1" stroke-linejoin="round" transform="translate(0,0)" visibility="inherit"></path><path fill="#0d233a" d="M 251.11031911267938 266.75416108356137 A 101.5 101.5 0 0 1 190.6962896239337 151.99944987514993 L 290 173 A 0 0 0 0 0 290 173 Z" stroke="#FFFFFF" stroke-width="1" stroke-linejoin="round" transform="translate(0,0)" visibility="inherit"></path><path fill="#8bbc21" d="M 190.71733982240949 151.90015668159867 A 101.5 101.5 0 0 1 232.99166271039596 89.02202979664999 L 290 173 A 0 0 0 0 0 290 173 Z" stroke="#FFFFFF" stroke-width="1" stroke-linejoin="round" transform="translate(0,0)" visibility="inherit"></path><path fill="#910000" d="M 233.0756691707693 88.96506345784336 A 101.5 101.5 0 0 1 275.99831079901077 72.47038894177048 L 290 173 A 0 0 0 0 0 290 173 Z" stroke="#FFFFFF" stroke-width="1" stroke-linejoin="round" transform="translate(0,0)" visibility="inherit"></path><path fill="#1aadce" d="M 276.0988473941581 72.45643751970444 A 101.5 101.5 0 0 1 289.85901853628576 71.50009791025958 L 290 173 A 0 0 0 0 0 290 173 Z" stroke="#FFFFFF" stroke-width="1" stroke-linejoin="round" transform="translate(0,0)" visibility="inherit"></path></g><g class="highcharts-markers" visibility="visible"  transform="translate(10,40) scale(1 1)"></g><g class="highcharts-series highcharts-tracker" visibility="visible"  transform="translate(10,40) scale(1 1)" style=""><path fill="none" d="M 351.2914999413998 20.594545738649053 C 346.2914999413998 20.594545738649053 343.5116727837998 28.096049652789844 339.6894104420998 38.410617534733426 L 335.86714810039985 48.72518541667701" stroke-opacity="1" stroke="rgb(98,177,255)" stroke-width="1" visibility="inherit"></path><path fill="none" d="M 426.78877827137853 78.2889713370169 C 421.78877827137853 78.2889713370169 415.28069045550797 82.94136781420124 406.332069708686 89.33841297032973 L 397.383448961864 95.73545812645821" stroke-opacity="1" stroke="rgb(85,164,254)" stroke-width="1" visibility="inherit"></path><path fill="none" d="M 418.79023050770536 276.9987025318935 C 413.79023050770536 276.9987025318935 407.6771327048557 271.8382727772321 399.27162322593745 264.74268186457266 L 390.8661137470192 257.64709095191324" stroke-opacity="1" stroke="rgb(72,151,241)" stroke-width="1" visibility="inherit"></path><path fill="none" d="M 236.57983061833335 333.5 C 241.57983061833335 333.5 243.97095009397128 319.460289074118 247.25873937297334 308.96312556882384 L 250.5465286519754 298.4659620635297" stroke-opacity="1" stroke="rgb(59,138,228)" stroke-width="1" visibility="inherit"></path><path fill="none" d="M 205.28055198259443 313.52769092557736 C 210.28055198259443 313.52769092557736 214.2173148476515 306.5633605094995 219.63036378710495 296.98740618739237 L 225.04341272655842 287.41145186528524" stroke-opacity="1" stroke="rgb(43,65,88)" stroke-width="1" visibility="inherit"></path><path fill="none" d="M 149.09449946658611 260.66855972943097 C 154.09449946658611 260.66855972943097 160.80588220897693 256.31455677982945 170.03403347976428 250.32780272412734 L 179.26218475055163 244.34104866842523" stroke-opacity="1" stroke="rgb(33,55,78)" stroke-width="1" visibility="inherit"></path><path fill="none" d="M 123.0790244455371 167.44058545965788 C 128.0790244455371 167.44058545965788 136.07512200378218 167.69043309127971 147.06975614636917 168.03397358475974 L 158.06439028895616 168.37751407823976" stroke-opacity="1" stroke="rgb(23,45,68)" stroke-width="1" visibility="inherit"></path><path fill="none" d="M 151.80872735905425 80.2824046491926 C 156.80872735905425 80.2824046491926 163.386074156138 84.83635997515839 172.42992600212813 91.09804854836136 L 181.47377784811826 97.35973712156434" stroke-opacity="1" stroke="rgb(158,207,52)" stroke-width="1" visibility="inherit"></path><path fill="none" d="M 180.7502997606228 48.5 C 185.7502997606228 48.5 223.68803124828605 33.50819160730475 228.42460044483704 43.4361779210687 L 233.16116964138803 53.36416423483264" stroke-opacity="1" stroke="rgb(196,51,51)" stroke-width="1" visibility="inherit"></path><path fill="none" d="M 208.875102627327 29.5 C 213.875102627327 29.5 251.91646274139293 23.28323086907325 254.63671540272202 33.941571521282306 L 257.3569680640511 44.59991217349136" stroke-opacity="1" stroke="rgb(188,43,43)" stroke-width="1" visibility="inherit"></path><path fill="none" d="M 276.2614248663001 10.5 C 281.2614248663001 10.5 281.69295944080375 18.724211667935606 282.28631948074633 29.708196548797346 L 282.8796795206889 40.69218142965909" stroke-opacity="1" stroke="rgb(43,190,223)" stroke-width="1" visibility="inherit"></path><path fill="rgb(98,177,255)" d="M 289.97311513711225 41.0000027378631 A 132 132 0 0 1 375.9215032509966 72.79273839142702 L 349.5592238444408 103.53814820314827 A 91.5 91.5 0 0 0 289.98136390186187 81.50000189783692 Z" stroke="#FFFFFF" stroke-width="1" fill-opacity="1" stroke-linejoin="round" transform="translate(0,0)" visibility="inherit"></path><path fill="rgb(85,164,254)" d="M 376.02166753515587 72.8787099839844 A 132 132 0 0 1 412.53470911043627 123.91593880676974 L 374.9388324515524 138.97582121832903 A 91.5 91.5 0 0 0 349.62865590505123 103.59774214798918 Z" stroke="#FFFFFF" stroke-width="1" fill-opacity="1" stroke-linejoin="round" transform="translate(0,0)" visibility="inherit"></path><path fill="rgb(72,151,241)" d="M 412.5837318960994 124.03849803748628 A 132 132 0 0 1 262.45699956400716 302.0944736500478 L 270.90769287959586 262.48594196196495 A 91.5 91.5 0 0 0 374.9728141552507 139.06077704871208 Z" stroke="#FFFFFF" stroke-width="1" fill-opacity="1" stroke-linejoin="round" transform="translate(0,0)" visibility="inherit"></path><path fill="rgb(59,138,228)" d="M 262.3279188833719 302.0668661069709 A 132 132 0 0 1 239.30235608267944 294.87595702694017 L 254.85731501185734 257.48219748458354 A 91.5 91.5 0 0 0 270.818216498701 262.46680491505936 Z" stroke="#FFFFFF" stroke-width="1" fill-opacity="1" stroke-linejoin="round" transform="translate(0,0)" visibility="inherit"></path><path fill="rgb(64,86,109)" d="M 239.18050549478502 294.825198453499 A 132 132 0 0 1 237.7222971584441 294.2066078463133 L 253.76204689392148 257.0182168025581 A 91.5 91.5 0 0 0 254.77285039979415 257.4470125643573 Z" stroke="#FFFFFF" stroke-width="1" fill-opacity="1" stroke-linejoin="round" transform="translate(0,0)" visibility="inherit"></path><path fill="rgb(53,75,98)" d="M 237.60111670964812 294.15426954888585 A 132 132 0 0 1 231.1383442721406 291.14950480207256 L 249.19817046137018 254.89908855598208 A 91.5 91.5 0 0 0 253.678046810097 256.98193684638676 Z" stroke="#FFFFFF" stroke-width="1" fill-opacity="1" stroke-linejoin="round" transform="translate(0,0)" visibility="inherit"></path><path fill="rgb(43,65,88)" d="M 231.02022421785554 291.0905840814074 A 132 132 0 0 1 219.30240710370003 284.47129836271324 L 240.9937140150648 250.2698772741535 A 91.5 91.5 0 0 0 249.11629178737712 254.8582457837029 Z" stroke="#FFFFFF" stroke-width="1" fill-opacity="1" stroke-linejoin="round" transform="translate(0,0)" visibility="inherit"></path><path fill="rgb(33,55,78)" d="M 219.1909711727094 284.40054504595537 A 132 132 0 0 1 159.4351090396388 192.41157511664088 L 199.494791493386 186.45575093312607 A 91.5 91.5 0 0 0 240.91646865380991 250.22083236140088 Z" stroke="#FFFFFF" stroke-width="1" fill-opacity="1" stroke-linejoin="round" transform="translate(0,0)" visibility="inherit"></path><path fill="rgb(23,45,68)" d="M 159.41576275019747 192.28100054165458 A 132 132 0 0 1 160.82901194334107 145.81809711468907 L 200.46101964254325 154.15799913631855 A 91.5 91.5 0 0 0 199.48138099729596 186.36523901182875 Z" stroke="#FFFFFF" stroke-width="1" fill-opacity="1" stroke-linejoin="round" transform="translate(0,0)" visibility="inherit"></path><path fill="rgb(190,239,84)" d="M 160.85625842718468 145.68893973911122 A 132 132 0 0 1 161.05059829648127 144.7856100490448 L 200.61461927369726 153.44229787490605 A 91.5 91.5 0 0 0 200.47990640975303 154.0684695918839 Z" stroke="#FFFFFF" stroke-width="1" fill-opacity="1" stroke-linejoin="round" transform="translate(0,0)" visibility="inherit"></path><path fill="rgb(183,232,77)" d="M 161.0788771564253 144.65667477602665 A 132 132 0 0 1 161.42827110575152 143.11169912584742 L 200.87641519830504 152.28197325768969 A 91.5 91.5 0 0 0 200.63422166524936 153.35292228792758 Z" stroke="#FFFFFF" stroke-width="1" fill-opacity="1" stroke-linejoin="round" transform="translate(0,0)" visibility="inherit"></path><path fill="rgb(177,226,71)" d="M 161.45822368750336 142.983142362531 A 132 132 0 0 1 161.67148923566631 142.08409268663956 L 201.04500958381414 151.56965515778424 A 91.5 91.5 0 0 0 200.89717778338303 152.19286004675445 Z" stroke="#FFFFFF" stroke-width="1" fill-opacity="1" stroke-linejoin="round" transform="translate(0,0)" visibility="inherit"></path><path fill="rgb(170,219,64)" d="M 161.70246930207705 141.9557796552157 A 132 132 0 0 1 162.4164338080322 139.14097405801863 L 201.56139161693142 149.529538835672 A 91.5 91.5 0 0 0 201.06648440257612 151.48071089736544 Z" stroke="#FFFFFF" stroke-width="1" fill-opacity="1" stroke-linejoin="round" transform="translate(0,0)" visibility="inherit"></path><path fill="rgb(164,213,58)" d="M 162.45035662010878 139.01340744260216 A 132 132 0 0 1 163.15555223506266 136.46938172973142 L 202.07373507203206 147.6776396081093 A 91.5 91.5 0 0 0 201.5849062934845 149.44111197725832 Z" stroke="#FFFFFF" stroke-width="1" fill-opacity="1" stroke-linejoin="round" transform="translate(0,0)" visibility="inherit"></path><path fill="rgb(158,207,52)" d="M 163.19214626946308 136.34255556841487 A 132 132 0 0 1 210.91748971418548 67.31198475279214 L 235.18144173369677 99.73898943091274 A 91.5 91.5 0 0 0 202.09910139133234 147.58972601901485 Z" stroke="#FFFFFF" stroke-width="1" fill-opacity="1" stroke-linejoin="round" transform="translate(0,0)" visibility="inherit"></path><path fill="rgb(151,200,45)" d="M 211.0232172530699 67.23295509968995 A 132 132 0 0 1 214.44761775270177 64.76027745435536 L 237.6284623058501 97.97019232631452 A 91.5 91.5 0 0 0 235.25473014133254 99.68420751228507 Z" stroke="#FFFFFF" stroke-width="1" fill-opacity="1" stroke-linejoin="round" transform="translate(0,0)" visibility="inherit"></path><path fill="rgb(145,194,39)" d="M 214.55589523339546 64.68477920455686 A 132 132 0 0 1 215.97032837971966 63.713185974732255 L 238.68397762685112 97.24436755066668 A 91.5 91.5 0 0 0 237.70351828678548 97.91785831224963 Z" stroke="#FFFFFF" stroke-width="1" fill-opacity="1" stroke-linejoin="round" transform="translate(0,0)" visibility="inherit"></path><path fill="rgb(196,51,51)" d="M 216.07965219036322 63.639210958852686 A 132 132 0 0 1 251.32072642103756 46.794161009073036 L 263.1882308145829 85.51640706310745 A 91.5 91.5 0 0 0 238.7597589046836 97.19308941465925 Z" stroke="#FFFFFF" stroke-width="1" fill-opacity="1" stroke-linejoin="round" transform="translate(0,0)" visibility="inherit"></path><path fill="rgb(188,43,43)" d="M 251.4469515786294 46.75554484485485 A 132 132 0 0 1 263.2081056652354 43.747555543599844 L 271.4283459724927 83.40455554726807 A 91.5 91.5 0 0 0 263.2757277988227 85.48963904018348 Z" stroke="#FFFFFF" stroke-width="1" fill-opacity="1" stroke-linejoin="round" transform="translate(0,0)" visibility="inherit"></path><path fill="rgb(181,36,36)" d="M 263.33737148409585 43.72082827994723 A 132 132 0 0 1 265.1498336599982 43.360232826210904 L 272.7743165143169 83.13607048180529 A 91.5 91.5 0 0 0 271.5179506878392 83.38602869405433 Z" stroke="#FFFFFF" stroke-width="1" fill-opacity="1" stroke-linejoin="round" transform="translate(0,0)" visibility="inherit"></path><path fill="rgb(174,29,29)" d="M 265.27948583064756 43.33544748389079 A 132 132 0 0 1 266.9671663889502 43.02504635182325 L 274.0340585196132 82.9037253120593 A 91.5 91.5 0 0 0 272.86418904169886 83.11888973315156 Z" stroke="#FFFFFF" stroke-width="1" fill-opacity="1" stroke-linejoin="round" transform="translate(0,0)" visibility="inherit"></path><path fill="rgb(166,21,21)" d="M 267.0971528373518 43.00207850952239 A 132 132 0 0 1 268.6587394413134 42.73661067757277 L 275.2066262036377 82.70378694695385 A 91.5 91.5 0 0 0 274.1241627622552 82.88780442137347 Z" stroke="#FFFFFF" stroke-width="1" fill-opacity="1" stroke-linejoin="round" transform="translate(0,0)" visibility="inherit"></path><path fill="rgb(159,14,14)" d="M 268.7890134795547 42.715334552260174 A 132 132 0 0 1 270.2233991499179 42.48990054859152 L 276.291219865284 82.53277197118275 A 91.5 91.5 0 0 0 275.29692979832765 82.68903872372582 Z" stroke="#FFFFFF" stroke-width="1" fill-opacity="1" stroke-linejoin="round" transform="translate(0,0)" visibility="inherit"></path><path fill="rgb(152,7,7)" d="M 270.3539191159173 42.47018920608181 A 132 132 0 0 1 271.3987751349958 42.317199167137716 L 277.10596912766755 82.4130585135841 A 91.5 91.5 0 0 0 276.3816939326245 82.51910842694308 Z" stroke="#FFFFFF" stroke-width="1" fill-opacity="1" stroke-linejoin="round" transform="translate(0,0)" visibility="inherit"></path><path fill="rgb(77,224,255)" d="M 271.52946721465986 42.29866328676789 A 132 132 0 0 1 272.44482162611644 42.17257278284063 L 277.83106953628527 82.31280613355999 A 91.5 91.5 0 0 0 277.19656250107107 82.40020977832775 Z" stroke="#FFFFFF" stroke-width="1" fill-opacity="1" stroke-linejoin="round" transform="translate(0,0)" visibility="inherit"></path><path fill="rgb(60,207,240)" d="M 272.5756578091175 42.15508302110075 A 132 132 0 0 1 275.5894341103105 41.78896543834844 L 280.0108577355561 82.046896497037 A 91.5 91.5 0 0 0 277.92176279950195 82.30068254871757 Z" stroke="#FFFFFF" stroke-width="1" fill-opacity="1" stroke-linejoin="round" transform="translate(0,0)" visibility="inherit"></path><path fill="rgb(43,190,223)" d="M 275.720652328286 41.774620480372334 A 132 132 0 0 1 289.81665464817456 41.00012733156913 L 289.87290833566647 81.50008826392859 A 91.5 91.5 0 0 0 280.101815818471 82.03695283298536 Z" stroke="#FFFFFF" stroke-width="1" fill-opacity="1" stroke-linejoin="round" transform="translate(0,0)" visibility="inherit"></path></g><g class="highcharts-markers" visibility="visible"  transform="translate(10,40) scale(1 1)"></g></g><text x="300" y="25" text-anchor="middle" class="highcharts-title"  style="color:#274b6d;font-size:16px;fill:#274b6d;width:536px;"><tspan x="300">Browser market share, April, 2011</tspan></text><g class="highcharts-data-labels highcharts-tracker" visibility="visible"  transform="translate(10,40) scale(1 1)" style=""><g  style="cursor:default;" transform="translate(346,176)" visibility="inherit"><text x="3" y="15"  style="font-size:11px;color:white;fill:white;"><tspan x="3">MSIE</tspan></text></g><g  style="cursor:default;" transform="translate(208,196)" visibility="inherit"><text x="3" y="15"  style="font-size:11px;color:white;fill:white;"><tspan x="3">Firefox</tspan></text></g><g  style="cursor:default;" transform="translate(210,123)" visibility="inherit"><text x="3" y="15"  style="font-size:11px;color:white;fill:white;"><tspan x="3">Chrome</tspan></text></g><g  style="cursor:default;" transform="translate(249,96)" visibility="inherit"><text x="3" y="15"  style="font-size:11px;color:white;fill:white;"><tspan x="3">Safari</tspan></text></g></g><g class="highcharts-data-labels highcharts-tracker" visibility="visible"  transform="translate(10,40) scale(1 1)" style=""><g  style="cursor:default;" transform="translate(356,11)" visibility="inherit"><text x="3" y="15"  style="font-size:11px;color:#666;fill:#666;"><tspan style="font-weight:bold" x="3">MSIE 6.0:</tspan><tspan dx="0"> 10.85%</tspan></text></g><g  style="cursor:default;" transform="translate(432,68)" visibility="inherit"><text x="3" y="15"  style="font-size:11px;color:#666;fill:#666;"><tspan style="font-weight:bold" x="3">MSIE 7.0:</tspan><tspan dx="0"> 7.35%</tspan></text></g><g  style="cursor:default;" transform="translate(424,267)" visibility="inherit"><text x="3" y="15"  style="font-size:11px;color:#666;fill:#666;"><tspan style="font-weight:bold" x="3">MSIE 8.0:</tspan><tspan dx="0"> 33.06%</tspan></text></g><g  style="cursor:default;" transform="translate(147,324)" visibility="inherit"><text x="3" y="15"  style="font-size:11px;color:#666;fill:#666;"><tspan style="font-weight:bold" x="3">MSIE 9.0:</tspan><tspan dx="0"> 2.81%</tspan></text></g><g  style="cursor:default;" transform="translate(104,304)" visibility="inherit"><text x="3" y="15"  style="font-size:11px;color:#666;fill:#666;"><tspan style="font-weight:bold" x="3">Firefox 3.5:</tspan><tspan dx="0"> 1.58%</tspan></text></g><g  style="cursor:default;" transform="translate(42,251)" visibility="inherit"><text x="3" y="15"  style="font-size:11px;color:#666;fill:#666;"><tspan style="font-weight:bold" x="3">Firefox 3.6:</tspan><tspan dx="0"> 13.12%</tspan></text></g><g  style="cursor:default;" transform="translate(22,157)" visibility="inherit"><text x="3" y="15"  style="font-size:11px;color:#666;fill:#666;"><tspan style="font-weight:bold" x="3">Firefox 4.0:</tspan><tspan dx="0"> 5.43%</tspan></text></g><g  style="cursor:default;" transform="translate(40,70)" visibility="inherit"><text x="3" y="15"  style="font-size:11px;color:#666;fill:#666;"><tspan style="font-weight:bold" x="3">Chrome 10.0:</tspan><tspan dx="0"> 9.91%</tspan></text></g><g  style="cursor:default;" transform="translate(87,39)" visibility="inherit"><text x="3" y="15"  style="font-size:11px;color:#666;fill:#666;"><tspan style="font-weight:bold" x="3">Safari 5.0:</tspan><tspan dx="0"> 4.55%</tspan></text></g><g  style="cursor:default;" transform="translate(115,20)" visibility="inherit"><text x="3" y="15"  style="font-size:11px;color:#666;fill:#666;"><tspan style="font-weight:bold" x="3">Safari 4.0:</tspan><tspan dx="0"> 1.42%</tspan></text></g><g  style="cursor:default;" transform="translate(174,1)" visibility="inherit"><text x="3" y="15"  style="font-size:11px;color:#666;fill:#666;"><tspan style="font-weight:bold" x="3">Opera 11.x:</tspan><tspan dx="0"> 1.65%</tspan></text></g></g><g class="highcharts-legend" ><rect x="0.5" y="0.5" width="7" height="7" rx="5" ry="5" stroke="#909090" stroke-width="1" fill="none" visibility="hidden"></rect><g ><g></g></g></g><g class="highcharts-tooltip"  style="cursor:default;padding:0;white-space:nowrap;" transform="translate(0,-9999)"><rect x="0.5" y="0.5" width="16" height="16" fill="none" fill-opacity="0.85" rx="3" ry="3"  stroke="black" stroke-opacity="0.049999999999999996" stroke-width="5" transform="translate(1, 1)"></rect><rect x="0.5" y="0.5" width="16" height="16" fill="none" fill-opacity="0.85" rx="3" ry="3"  stroke="black" stroke-opacity="0.09999999999999999" stroke-width="3" transform="translate(1, 1)"></rect><rect x="0.5" y="0.5" width="16" height="16" fill="none" fill-opacity="0.85" rx="3" ry="3"  stroke="black" stroke-opacity="0.15" stroke-width="1" transform="translate(1, 1)"></rect><rect x="0.5" y="0.5" width="16" height="16" fill="rgb(255,255,255)" fill-opacity="0.85" rx="3" ry="3"></rect><text x="8" y="21"  style="font-size:12px;color:#333333;fill:#333333;"></text></g><text x="590" y="395" text-anchor="end"  style="cursor:pointer;color:#909090;font-size:9px;fill:#909090;"><tspan x="590">Highcharts.com</tspan></text></svg>