<?xml version="1.0" standalone="no"?><!DOCTYPE svg PUBLIC "-//W3C//DTD SVG 1.1//EN" "http://www.w3.org/Graphics/SVG/1.1/DTD/svg11.dtd"><svg xmlns:xlink="http://www.w3.org/1999/xlink" version="1.1" style="font-family:'lucida grande', 'lucida sans unicode', verdana, arial, helvetica, sans-serif;font-size:12px;" xmlns="http://www.w3.org/2000/svg" width="600" height="400"><desc>Created with Highcharts 3.0.10</desc><defs><clipPath id="highcharts-7"><rect x="0" y="0" width="530" height="283"></rect></clipPath></defs><rect x="0" y="0" width="600" height="400" fill="#FFFFFF" class=" highcharts-background"></rect><g class="highcharts-grid" ></g><g class="highcharts-grid" ><path fill="none" d="M 60 53.5 L 590 53.5" stroke="#C0C0C0" stroke-width="1"  opacity="1"></path><path fill="none" d="M 60 125.5 L 590 125.5" stroke="#C0C0C0" stroke-width="1"  opacity="1"></path><path fill="none" d="M 60 196.5 L 590 196.5" stroke="#C0C0C0" stroke-width="1"  opacity="1"></path><path fill="none" d="M 60 266.5 L 590 266.5" stroke="#C0C0C0" stroke-width="1"  opacity="1"></path><path fill="none" d="M 60 337.5 L 590 337.5" stroke="#C0C0C0" stroke-width="1"  opacity="1"></path></g><g class="highcharts-axis" ><path fill="none" d="M 173.5 337 L 173.5 342" stroke="#C0D0E0" stroke-width="1" opacity="1"></path><path fill="none" d="M 248.5 337 L 248.5 342" stroke="#C0D0E0" stroke-width="1" opacity="1"></path><path fill="none" d="M 324.5 337 L 324.5 342" stroke="#C0D0E0" stroke-width="1" opacity="1"></path><path fill="none" d="M 400.5 337 L 400.5 342" stroke="#C0D0E0" stroke-width="1" opacity="1"></path><path fill="none" d="M 475.5 337 L 475.5 342" stroke="#C0D0E0" stroke-width="1" opacity="1"></path><path fill="none" d="M 551.5 337 L 551.5 342" stroke="#C0D0E0" stroke-width="1" opacity="1"></path><path fill="none" d="M 97.5 337 L 97.5 342" stroke="#C0D0E0" stroke-width="1" opacity="1"></path><path fill="none" d="M 60 337.5 L 590 337.5" stroke="#C0D0E0" stroke-width="1"  visibility="visible"></path></g><g class="highcharts-axis" ><text x="24" y="195.5"  text-anchor="middle" transform="translate(0,0) rotate(270 24 195.5)" class=" highcharts-yaxis-title" style="color:#4d759e;font-weight:bold;fill:#4d759e;" visibility="visible"><tspan x="24">Percent</tspan></text></g><g class="highcharts-series-group" ><g class="highcharts-series" visibility="visible"  transform="translate(60,54) scale(1 1)" clip-path="url(#highcharts-7)"><path fill="rgb(47,126,216)" d="M 37.857142857142854 0 L 113.57142857142856 0 L 189.28571428571428 0 L 264.99999999999994 0 L 340.71428571428567 0 L 416.4285714285714 0 L 492.14285714285705 0 492.14285714285705 167.34134021775668 416.4285714285714 172.0344596855139 340.71428571428567 157.32196669310156 264.99999999999994 162.42484848484736 189.28571428571428 182.8650159744399 113.57142857142856 183.7474437627806 37.857142857142854 179.60303413400777" fill-opacity="0.75" ></path><path fill="none" d="M 37.857142857142854 0 L 113.57142857142856 0 L 189.28571428571428 0 L 264.99999999999994 0 L 340.71428571428567 0 L 416.4285714285714 0 L 492.14285714285705 0" stroke="#ffffff" stroke-width="1"  stroke-linejoin="round" stroke-linecap="round"></path><path fill="none" d="M 27.857142857142854 0 L 37.857142857142854 0 L 113.57142857142856 0 L 189.28571428571428 0 L 264.99999999999994 0 L 340.71428571428567 0 L 416.4285714285714 0 L 492.14285714285705 0 L 502.14285714285705 0" stroke-linejoin="round" visibility="visible" stroke-opacity="0.0001" stroke="rgb(192,192,192)" stroke-width="21"  class=" highcharts-tracker" style=""></path></g><g class="highcharts-markers highcharts-tracker" visibility="visible"  transform="translate(60,54) scale(1 1)" style="" clip-path="none"><path fill="#2f7ed8" d="M 492 -4 C 497.328 -4 497.328 4 492 4 C 486.672 4 486.672 -4 492 -4 Z" stroke="#ffffff" stroke-width="1"></path><path fill="#2f7ed8" d="M 416 -4 C 421.328 -4 421.328 4 416 4 C 410.672 4 410.672 -4 416 -4 Z" stroke="#ffffff" stroke-width="1"></path><path fill="#2f7ed8" d="M 340 -4 C 345.328 -4 345.328 4 340 4 C 334.672 4 334.672 -4 340 -4 Z" stroke="#ffffff" stroke-width="1"></path><path fill="#2f7ed8" d="M 264 -4 C 269.328 -4 269.328 4 264 4 C 258.672 4 258.672 -4 264 -4 Z" stroke="#ffffff" stroke-width="1"></path><path fill="#2f7ed8" d="M 189 -4 C 194.328 -4 194.328 4 189 4 C 183.672 4 183.672 -4 189 -4 Z" stroke="#ffffff" stroke-width="1"></path><path fill="#2f7ed8" d="M 113 -4 C 118.328 -4 118.328 4 113 4 C 107.672 4 107.672 -4 113 -4 Z" stroke="#ffffff" stroke-width="1"></path><path fill="#2f7ed8" d="M 37 -4 C 42.328 -4 42.328 4 37 4 C 31.672 4 31.672 -4 37 -4 Z" stroke="#ffffff" stroke-width="1"></path></g><g class="highcharts-series" visibility="visible"  transform="translate(60,54) scale(1 1)" clip-path="url(#highcharts-7)"><path fill="rgb(13,35,58)" d="M 37.857142857142854 179.60303413400777 L 113.57142857142856 183.7474437627806 L 189.28571428571428 182.8650159744399 L 264.99999999999994 162.42484848484736 L 340.71428571428567 157.32196669310156 L 416.4285714285714 172.0344596855139 L 492.14285714285705 167.34134021775668 492.14285714285705 223.4394432596262 416.4285714285714 208.3444295751077 340.71428571428567 182.12093576526613 264.99999999999994 185.23636363636234 189.28571428571428 207.95527156549528 113.57142857142856 214.70961145194352 37.857142857142854 217.52718078381847" fill-opacity="0.75" ></path><path fill="none" d="M 37.857142857142854 179.60303413400777 L 113.57142857142856 183.7474437627806 L 189.28571428571428 182.8650159744399 L 264.99999999999994 162.42484848484736 L 340.71428571428567 157.32196669310156 L 416.4285714285714 172.0344596855139 L 492.14285714285705 167.34134021775668" stroke="#ffffff" stroke-width="1"  stroke-linejoin="round" stroke-linecap="round"></path><path fill="none" d="M 27.857142857142854 179.60303413400777 L 37.857142857142854 179.60303413400777 L 113.57142857142856 183.7474437627806 L 189.28571428571428 182.8650159744399 L 264.99999999999994 162.42484848484736 L 340.71428571428567 157.32196669310156 L 416.4285714285714 172.0344596855139 L 492.14285714285705 167.34134021775668 L 502.14285714285705 167.34134021775668" stroke-linejoin="round" visibility="visible" stroke-opacity="0.0001" stroke="rgb(192,192,192)" stroke-width="21"  class=" highcharts-tracker" style=""></path></g><g class="highcharts-markers highcharts-tracker" visibility="visible"  transform="translate(60,54) scale(1 1)" style="" clip-path="none"><path fill="#0d233a" d="M 492 163.34134021775668 L 496 167.34134021775668 492 171.34134021775668 488 167.34134021775668 Z" stroke="#ffffff" stroke-width="1"></path><path fill="#0d233a" d="M 416 168.0344596855139 L 420 172.0344596855139 416 176.0344596855139 412 172.0344596855139 Z" stroke="#ffffff" stroke-width="1"></path><path fill="#0d233a" d="M 340 153.32196669310156 L 344 157.32196669310156 340 161.32196669310156 336 157.32196669310156 Z" stroke="#ffffff" stroke-width="1"></path><path fill="#0d233a" d="M 264 158.42484848484736 L 268 162.42484848484736 264 166.42484848484736 260 162.42484848484736 Z" stroke="#ffffff" stroke-width="1"></path><path fill="#0d233a" d="M 189 178.8650159744399 L 193 182.8650159744399 189 186.8650159744399 185 182.8650159744399 Z" stroke="#ffffff" stroke-width="1"></path><path fill="#0d233a" d="M 113 179.7474437627806 L 117 183.7474437627806 113 187.7474437627806 109 183.7474437627806 Z" stroke="#ffffff" stroke-width="1"></path><path fill="#0d233a" d="M 37 175.60303413400777 L 41 179.60303413400777 37 183.60303413400777 33 179.60303413400777 Z" stroke="#ffffff" stroke-width="1"></path></g><g class="highcharts-series" visibility="visible"  transform="translate(60,54) scale(1 1)" clip-path="url(#highcharts-7)"><path fill="rgb(139,188,33)" d="M 37.857142857142854 217.52718078381847 L 113.57142857142856 214.70961145194352 L 189.28571428571428 207.95527156549528 L 264.99999999999994 185.23636363636234 L 340.71428571428567 182.12093576526613 L 416.4285714285714 208.3444295751077 L 492.14285714285705 223.4394432596262 492.14285714285705 243.3882590638694 416.4285714285714 242.85547005687636 340.71428571428567 243.50118953211674 264.99999999999994 255.21454545454552 189.28571428571428 270.34185303514386 113.57142857142856 273.45092024539866 37.857142857142854 275.8445006321113" fill-opacity="0.75" ></path><path fill="none" d="M 37.857142857142854 217.52718078381847 L 113.57142857142856 214.70961145194352 L 189.28571428571428 207.95527156549528 L 264.99999999999994 185.23636363636234 L 340.71428571428567 182.12093576526613 L 416.4285714285714 208.3444295751077 L 492.14285714285705 223.4394432596262" stroke="#ffffff" stroke-width="1"  stroke-linejoin="round" stroke-linecap="round"></path><path fill="none" d="M 27.857142857142854 217.52718078381847 L 37.857142857142854 217.52718078381847 L 113.57142857142856 214.70961145194352 L 189.28571428571428 207.95527156549528 L 264.99999999999994 185.23636363636234 L 340.71428571428567 182.12093576526613 L 416.4285714285714 208.3444295751077 L 492.14285714285705 223.4394432596262 L 502.14285714285705 223.4394432596262" stroke-linejoin="round" visibility="visible" stroke-opacity="0.0001" stroke="rgb(192,192,192)" stroke-width="21"  class=" highcharts-tracker" style=""></path></g><g class="highcharts-markers highcharts-tracker" visibility="visible"  transform="translate(60,54) scale(1 1)" style="" clip-path="none"><path fill="#8bbc21" d="M 488 219.4394432596262 L 496 219.4394432596262 496 227.4394432596262 488 227.4394432596262 Z" stroke="#ffffff" stroke-width="1"></path><path fill="#8bbc21" d="M 412 204.3444295751077 L 420 204.3444295751077 420 212.3444295751077 412 212.3444295751077 Z" stroke="#ffffff" stroke-width="1"></path><path fill="#8bbc21" d="M 336 178.12093576526613 L 344 178.12093576526613 344 186.12093576526613 336 186.12093576526613 Z" stroke="#ffffff" stroke-width="1"></path><path fill="#8bbc21" d="M 260 181.23636363636234 L 268 181.23636363636234 268 189.23636363636234 260 189.23636363636234 Z" stroke="#ffffff" stroke-width="1"></path><path fill="#8bbc21" d="M 185 203.95527156549528 L 193 203.95527156549528 193 211.95527156549528 185 211.95527156549528 Z" stroke="#ffffff" stroke-width="1"></path><path fill="#8bbc21" d="M 109 210.70961145194352 L 117 210.70961145194352 117 218.70961145194352 109 218.70961145194352 Z" stroke="#ffffff" stroke-width="1"></path><path fill="#8bbc21" d="M 33 213.52718078381847 L 41 213.52718078381847 41 221.52718078381847 33 221.52718078381847 Z" stroke="#ffffff" stroke-width="1"></path></g><g class="highcharts-series" visibility="visible"  transform="translate(60,54) scale(1 1)" clip-path="url(#highcharts-7)"><path fill="rgb(145,0,0)" d="M 37.857142857142854 275.8445006321113 L 113.57142857142856 273.45092024539866 L 189.28571428571428 270.34185303514386 L 264.99999999999994 255.21454545454552 L 340.71428571428567 243.50118953211674 L 416.4285714285714 242.85547005687636 L 492.14285714285705 243.3882590638694 492.14285714285705 281.5387810079695 416.4285714285714 281.5797925727668 340.71428571428567 281.5412371134021 264.99999999999994 281.9709090909091 189.28571428571428 282.5479233226837 113.57142857142856 282.4212678936605 37.857142857142854 282.2844500632111" fill-opacity="0.75" ></path><path fill="none" d="M 37.857142857142854 275.8445006321113 L 113.57142857142856 273.45092024539866 L 189.28571428571428 270.34185303514386 L 264.99999999999994 255.21454545454552 L 340.71428571428567 243.50118953211674 L 416.4285714285714 242.85547005687636 L 492.14285714285705 243.3882590638694" stroke="#ffffff" stroke-width="1"  stroke-linejoin="round" stroke-linecap="round"></path><path fill="none" d="M 27.857142857142854 275.8445006321113 L 37.857142857142854 275.8445006321113 L 113.57142857142856 273.45092024539866 L 189.28571428571428 270.34185303514386 L 264.99999999999994 255.21454545454552 L 340.71428571428567 243.50118953211674 L 416.4285714285714 242.85547005687636 L 492.14285714285705 243.3882590638694 L 502.14285714285705 243.3882590638694" stroke-linejoin="round" visibility="visible" stroke-opacity="0.0001" stroke="rgb(192,192,192)" stroke-width="21"  class=" highcharts-tracker" style=""></path></g><g class="highcharts-markers highcharts-tracker" visibility="visible"  transform="translate(60,54) scale(1 1)" style="" clip-path="none"><path fill="#910000" d="M 492 239.3882590638694 L 496 247.3882590638694 488 247.3882590638694 Z" stroke="#ffffff" stroke-width="1"></path><path fill="#910000" d="M 416 238.85547005687636 L 420 246.85547005687636 412 246.85547005687636 Z" stroke="#ffffff" stroke-width="1"></path><path fill="#910000" d="M 340 239.50118953211674 L 344 247.50118953211674 336 247.50118953211674 Z" stroke="#ffffff" stroke-width="1"></path><path fill="#910000" d="M 264 251.21454545454552 L 268 259.2145454545455 260 259.2145454545455 Z" stroke="#ffffff" stroke-width="1"></path><path fill="#910000" d="M 189 266.34185303514386 L 193 274.34185303514386 185 274.34185303514386 Z" stroke="#ffffff" stroke-width="1"></path><path fill="#910000" d="M 113 269.45092024539866 L 117 277.45092024539866 109 277.45092024539866 Z" stroke="#ffffff" stroke-width="1"></path><path fill="#910000" d="M 37 271.8445006321113 L 41 279.8445006321113 33 279.8445006321113 Z" stroke="#ffffff" stroke-width="1"></path></g><g class="highcharts-series" visibility="visible"  transform="translate(60,54) scale(1 1)" clip-path="url(#highcharts-7)"><path fill="rgb(26,173,206)" d="M 37.857142857142854 282.2844500632111 L 113.57142857142856 282.4212678936605 L 189.28571428571428 282.5479233226837 L 264.99999999999994 281.9709090909091 L 340.71428571428567 281.5412371134021 L 416.4285714285714 281.5797925727668 L 492.14285714285705 281.5387810079695 492.14285714285705 283 416.4285714285714 283 340.71428571428567 283 264.99999999999994 283 189.28571428571428 283 113.57142857142856 283 37.857142857142854 283" fill-opacity="0.75" ></path><path fill="none" d="M 37.857142857142854 282.2844500632111 L 113.57142857142856 282.4212678936605 L 189.28571428571428 282.5479233226837 L 264.99999999999994 281.9709090909091 L 340.71428571428567 281.5412371134021 L 416.4285714285714 281.5797925727668 L 492.14285714285705 281.5387810079695" stroke="#ffffff" stroke-width="1"  stroke-linejoin="round" stroke-linecap="round"></path><path fill="none" d="M 27.857142857142854 282.2844500632111 L 37.857142857142854 282.2844500632111 L 113.57142857142856 282.4212678936605 L 189.28571428571428 282.5479233226837 L 264.99999999999994 281.9709090909091 L 340.71428571428567 281.5412371134021 L 416.4285714285714 281.5797925727668 L 492.14285714285705 281.5387810079695 L 502.14285714285705 281.5387810079695" stroke-linejoin="round" visibility="visible" stroke-opacity="0.0001" stroke="rgb(192,192,192)" stroke-width="21"  class=" highcharts-tracker" style=""></path></g><g class="highcharts-markers highcharts-tracker" visibility="visible"  transform="translate(60,54) scale(1 1)" style="" clip-path="none"><path fill="#1aadce" d="M 488 277.5387810079695 L 496 277.5387810079695 492 285.5387810079695 Z" stroke="#ffffff" stroke-width="1"></path><path fill="#1aadce" d="M 412 277.5797925727668 L 420 277.5797925727668 416 285.5797925727668 Z" stroke="#ffffff" stroke-width="1"></path><path fill="#1aadce" d="M 336 277.5412371134021 L 344 277.5412371134021 340 285.5412371134021 Z" stroke="#ffffff" stroke-width="1"></path><path fill="#1aadce" d="M 260 277.9709090909091 L 268 277.9709090909091 264 285.9709090909091 Z" stroke="#ffffff" stroke-width="1"></path><path fill="#1aadce" d="M 185 278.5479233226837 L 193 278.5479233226837 189 286.5479233226837 Z" stroke="#ffffff" stroke-width="1"></path><path fill="#1aadce" d="M 109 278.4212678936605 L 117 278.4212678936605 113 286.4212678936605 Z" stroke="#ffffff" stroke-width="1"></path><path fill="#1aadce" d="M 33 278.2844500632111 L 41 278.2844500632111 37 286.2844500632111 Z" stroke="#ffffff" stroke-width="1"></path></g></g><text x="300" y="25" text-anchor="middle" class="highcharts-title"  style="color:#274b6d;font-size:16px;fill:#274b6d;width:536px;"><tspan x="300">Historic and Estimated Worldwide Population Distribution by Region</tspan></text><text x="300" y="40" text-anchor="middle" class="highcharts-subtitle"  style="color:#4d759e;fill:#4d759e;width:536px;"><tspan x="300">Source: Wikipedia.org</tspan></text><g class="highcharts-legend"  transform="translate(131,360)"><rect x="0.5" y="0.5" width="338" height="24" rx="5" ry="5" stroke="#909090" stroke-width="1" fill="none" visibility="visible"></rect><g ><g><g class="highcharts-legend-item"  transform="translate(8,3)"><text x="21" y="15" style="color:#274b6d;font-size:12px;cursor:pointer;fill:#274b6d;" text-anchor="start" ><tspan x="21">Asia</tspan></text><rect x="0" y="4" width="16" height="12" rx="2" ry="2"  fill="#2f7ed8"></rect></g><g class="highcharts-legend-item"  transform="translate(61,3)"><text x="21" y="15" style="color:#274b6d;font-size:12px;cursor:pointer;fill:#274b6d;" text-anchor="start" ><tspan x="21">Africa</tspan></text><rect x="0" y="4" width="16" height="12" rx="2" ry="2"  fill="#0d233a"></rect></g><g class="highcharts-legend-item"  transform="translate(121,3)"><text x="21" y="15" style="color:#274b6d;font-size:12px;cursor:pointer;fill:#274b6d;" text-anchor="start" ><tspan x="21">Europe</tspan></text><rect x="0" y="4" width="16" height="12" rx="2" ry="2"  fill="#8bbc21"></rect></g><g class="highcharts-legend-item"  transform="translate(190,3)"><text x="21" y="15" style="color:#274b6d;font-size:12px;cursor:pointer;fill:#274b6d;" text-anchor="start" ><tspan x="21">America</tspan></text><rect x="0" y="4" width="16" height="12" rx="2" ry="2"  fill="#910000"></rect></g><g class="highcharts-legend-item"  transform="translate(264,3)"><text x="21" y="15" style="color:#274b6d;font-size:12px;cursor:pointer;fill:#274b6d;" text-anchor="start" ><tspan x="21">Oceania</tspan></text><rect x="0" y="4" width="16" height="12" rx="2" ry="2"  fill="#1aadce"></rect></g></g></g></g><g class="highcharts-axis-labels highcharts-xaxis-labels" ><text x="97.85714285714286" y="351" text-anchor="middle" style="width:56px;color:#666;cursor:default;font-size:11px;fill:#666;" opacity="1"><tspan x="97.85714285714286">1750</tspan></text><text x="173.57142857142856" y="351" text-anchor="middle" style="width:56px;color:#666;cursor:default;font-size:11px;fill:#666;" opacity="1"><tspan x="173.57142857142856">1800</tspan></text><text x="249.28571428571428" y="351" text-anchor="middle" style="width:56px;color:#666;cursor:default;font-size:11px;fill:#666;" opacity="1"><tspan x="249.28571428571428">1850</tspan></text><text x="324.99999999999994" y="351" text-anchor="middle" style="width:56px;color:#666;cursor:default;font-size:11px;fill:#666;" opacity="1"><tspan x="324.99999999999994">1900</tspan></text><text x="400.71428571428567" y="351" text-anchor="middle" style="width:56px;color:#666;cursor:default;font-size:11px;fill:#666;" opacity="1"><tspan x="400.71428571428567">1950</tspan></text><text x="476.4285714285714" y="351" text-anchor="middle" style="width:56px;color:#666;cursor:default;font-size:11px;fill:#666;" opacity="1"><tspan x="476.4285714285714">1999</tspan></text><text x="552.1428571428571" y="351" text-anchor="middle" style="width:56px;color:#666;cursor:default;font-size:11px;fill:#666;" opacity="1"><tspan x="552.1428571428571">2050</tspan></text></g><g class="highcharts-axis-labels highcharts-yaxis-labels" ><text x="52" y="342.5" text-anchor="end" style="width:178px;color:#666;cursor:default;font-size:11px;fill:#666;" opacity="1"><tspan x="52">0</tspan></text><text x="52" y="59.5" text-anchor="end" style="width:178px;color:#666;cursor:default;font-size:11px;fill:#666;" opacity="1"><tspan x="52">100</tspan></text><text x="52" y="271.75" text-anchor="end" style="width:178px;color:#666;cursor:default;font-size:11px;fill:#666;" opacity="1"><tspan x="52">25</tspan></text><text x="52" y="201" text-anchor="end" style="width:178px;color:#666;cursor:default;font-size:11px;fill:#666;" opacity="1"><tspan x="52">50</tspan></text><text x="52" y="130.25" text-anchor="end" style="width:178px;color:#666;cursor:default;font-size:11px;fill:#666;" opacity="1"><tspan x="52">75</tspan></text></g><g class="highcharts-tooltip"  style="cursor:default;padding:0;white-space:nowrap;" transform="translate(0,-9999)"><rect x="0.5" y="0.5" width="16" height="16" fill="none" fill-opacity="0.85" rx="3" ry="3"  stroke="black" stroke-opacity="0.049999999999999996" stroke-width="5" transform="translate(1, 1)"></rect><rect x="0.5" y="0.5" width="16" height="16" fill="none" fill-opacity="0.85" rx="3" ry="3"  stroke="black" stroke-opacity="0.09999999999999999" stroke-width="3" transform="translate(1, 1)"></rect><rect x="0.5" y="0.5" width="16" height="16" fill="none" fill-opacity="0.85" rx="3" ry="3"  stroke="black" stroke-opacity="0.15" stroke-width="1" transform="translate(1, 1)"></rect><rect x="0.5" y="0.5" width="16" height="16" fill="rgb(255,255,255)" fill-opacity="0.85" rx="3" ry="3"></rect><text x="8" y="21"  style="font-size:12px;color:#333333;fill:#333333;"></text></g><text x="590" y="395" text-anchor="end"  style="cursor:pointer;color:#909090;font-size:9px;fill:#909090;"><tspan x="590">Highcharts.com</tspan></text></svg>